<svg width="34" height="37" viewBox="0 0 34 37" fill="none" xmlns="http://www.w3.org/2000/svg">
<g id="Iconly/Bold/2 User">
<g id="2 User">
<path id="2 Friends" fill-rule="evenodd" clip-rule="evenodd" d="M20.1344 11.9671C20.1344 16.0429 17.0696 19.3091 13.2451 19.3091C9.42205 19.3091 6.35583 16.0429 6.35583 11.9671C6.35583 7.89125 9.42205 4.625 13.2451 4.625C17.0696 4.625 20.1344 7.89125 20.1344 11.9671ZM2.8335 27.6227C2.8335 23.8498 7.62966 22.9058 13.245 22.9058C18.8909 22.9058 23.6566 23.8823 23.6566 27.6582C23.6566 31.4312 18.8604 32.3751 13.245 32.3751C7.59916 32.3751 2.8335 31.3987 2.8335 27.6227ZM22.9125 12.1002C22.9125 14.1758 22.3275 16.1125 21.3017 17.7212C21.195 17.8867 21.2893 18.1098 21.475 18.1452C21.7328 18.191 21.9976 18.2191 22.2679 18.225C24.9571 18.3003 27.3704 16.4552 28.0372 13.6765C29.0255 9.55338 26.1256 5.85133 22.4315 5.85133C22.0309 5.85133 21.6469 5.89565 21.2726 5.9769C21.2213 5.98872 21.1659 6.01531 21.1382 6.06258C21.1021 6.12315 21.1285 6.20145 21.1645 6.25315C22.2748 7.91213 22.9125 9.93156 22.9125 12.1002ZM27.3663 21.1244C29.1739 21.5011 30.3618 22.2678 30.8539 23.3861C31.2711 24.302 31.2711 25.3657 30.8539 26.2816C30.1012 28.013 27.6726 28.5699 26.7287 28.7132C26.5332 28.7427 26.3766 28.5655 26.3974 28.3557C26.8797 23.5575 23.0442 21.2825 22.0517 20.7595C22.0101 20.7344 22.0004 20.699 22.0046 20.6753C22.0073 20.6606 22.0254 20.6369 22.0572 20.6325C24.2044 20.5882 26.5138 20.9028 27.3663 21.1244Z" fill="#130F26"/>
</g>
</g>
</svg>
