<svg width="37" height="35" viewBox="0 0 37 35" fill="none" xmlns="http://www.w3.org/2000/svg">
<g id="Iconly/Bold/Image">
<g id="Image">
<path id="Image_2" fill-rule="evenodd" clip-rule="evenodd" d="M11.8186 32.0833H25.1797C30.4064 32.0833 33.9166 28.6152 33.9166 23.4548V11.5452C33.9166 6.38474 30.4064 2.91666 25.1812 2.91666H11.8186C6.59347 2.91666 3.08325 6.38474 3.08325 11.5452V23.4548C3.08325 28.6152 6.59347 32.0833 11.8186 32.0833ZM13.1023 16.0417C10.9769 16.0417 9.24992 14.4058 9.24992 12.3958C9.24992 10.3858 10.9769 8.74999 13.1023 8.74999C15.2262 8.74999 16.9547 10.3858 16.9547 12.3958C16.9547 14.4058 15.2262 16.0417 13.1023 16.0417ZM30.557 21.7787C31.0732 23.0308 30.805 24.5358 30.2532 25.7759C29.5989 27.2508 28.3463 28.3675 26.7682 28.8551C26.0674 29.0718 25.3326 29.1666 24.5993 29.1666H11.6066C10.3137 29.1666 9.16956 28.8732 8.23165 28.3269C7.6441 27.9837 7.54024 27.1921 7.97586 26.6789C8.70448 25.8211 9.42381 24.9602 10.1493 24.0918C11.5322 22.4303 12.4639 21.9487 13.4995 22.3716C13.9196 22.5462 14.3412 22.8081 14.7753 23.085C15.9318 23.8285 17.5394 24.8503 19.6571 23.7412C21.1063 22.9734 21.9468 21.6564 22.6787 20.5096L22.691 20.4904C22.7427 20.4101 22.7941 20.3298 22.8452 20.2497L22.8455 20.2493L22.8455 20.2492C23.0915 19.8642 23.3342 19.4844 23.6087 19.1344C23.9529 18.6964 25.2288 17.3269 26.8813 18.3021C27.934 18.9162 28.8192 19.7469 29.7664 20.6364C30.1276 20.9765 30.3849 21.3633 30.557 21.7787Z" fill="#130F26"/>
</g>
</g>
</svg>
