<svg width="20" height="20" viewBox="0 0 20 20" fill="none" xmlns="http://www.w3.org/2000/svg">
<g id="Iconly/Bulk/Location">
<g id="Location">
<path id="Path_34175" fill-rule="evenodd" clip-rule="evenodd" d="M7.10968 2.4473C8.93039 1.38939 11.1683 1.40788 12.972 2.49574C14.7579 3.60575 15.8433 5.5868 15.8332 7.71786C15.7916 9.83494 14.6277 11.825 13.1729 13.3634C12.3332 14.2553 11.3938 15.044 10.374 15.7134C10.269 15.7741 10.1539 15.8147 10.0346 15.8333C9.91966 15.8284 9.80776 15.7945 9.70895 15.7345C8.15201 14.7288 6.7861 13.445 5.67693 11.945C4.74881 10.6928 4.22152 9.18 4.16666 7.61201C4.16545 5.47686 5.28896 3.50521 7.10968 2.4473ZM8.1618 8.49564C8.46806 9.25069 9.19098 9.74319 9.993 9.7432C10.5184 9.74697 11.0235 9.53651 11.3957 9.15872C11.7679 8.78093 11.9762 8.26719 11.9744 7.73197C11.9772 6.91502 11.4962 6.17692 10.756 5.8623C10.0159 5.54769 9.16253 5.71862 8.59442 6.29528C8.02632 6.87195 7.85553 7.74059 8.1618 8.49564Z" fill="#130F26"/>
<ellipse id="Ellipse_743" opacity="0.4" cx="9.99998" cy="17.5" rx="4.16667" ry="0.833334" fill="#130F26"/>
</g>
</g>
</svg>
