<svg width="34" height="32" viewBox="0 0 34 32" fill="none" xmlns="http://www.w3.org/2000/svg">
<g id="Iconly/Bold/Location">
<g id="Location">
<path id="Location_2" fill-rule="evenodd" clip-rule="evenodd" d="M4.95825 13.757C4.95825 7.62385 10.4038 2.66666 16.9906 2.66666C23.5961 2.66666 29.0416 7.62385 29.0416 13.757C29.0416 16.8476 27.8473 19.7168 25.8817 22.1488C23.7132 24.8313 21.0405 27.1686 18.032 29.0032C17.3435 29.4272 16.7221 29.4592 15.9664 29.0032C12.9408 27.1686 10.268 24.8313 8.11813 22.1488C6.15106 19.7168 4.95825 16.8476 4.95825 13.757ZM13.0251 14.1023C13.0251 16.1569 14.8065 17.7729 16.9907 17.7729C19.1763 17.7729 20.9748 16.1569 20.9748 14.1023C20.9748 12.0637 19.1763 10.3691 16.9907 10.3691C14.8065 10.3691 13.0251 12.0637 13.0251 14.1023Z" fill="#130F26"/>
</g>
</g>
</svg>
