<svg width="37" height="43" viewBox="0 0 37 43" fill="none" xmlns="http://www.w3.org/2000/svg">
<g id="Iconly/Bold/Search">
<g id="Search">
<path id="Search_2" fill-rule="evenodd" clip-rule="evenodd" d="M3 16.0049C3 8.82249 8.76051 3 15.8665 3C19.2789 3 22.5515 4.37015 24.9644 6.80904C27.3773 9.24793 28.7329 12.5558 28.7329 16.0049C28.7329 23.1873 22.9724 29.0098 15.8665 29.0098C8.76051 29.0098 3 23.1873 3 16.0049ZM28.52 26.4814L32.352 29.5746H32.4185C33.1938 30.3582 33.1938 31.6287 32.4185 32.4123C31.6433 33.1959 30.3863 33.1959 29.6111 32.4123L26.4311 28.7677C26.1304 28.4649 25.9614 28.0535 25.9614 27.6246C25.9614 27.1956 26.1304 26.7842 26.4311 26.4814C27.0108 25.9056 27.9402 25.9056 28.52 26.4814Z" fill="#130F26"/>
</g>
<path id="BUSCAR" d="M3.74268 42V35.6016H5.83447C6.52881 35.6016 7.05029 35.7451 7.39893 36.0322C7.75049 36.3193 7.92627 36.7441 7.92627 37.3066C7.92627 37.6055 7.84131 37.8706 7.67139 38.1021C7.50146 38.3306 7.27002 38.5078 6.97705 38.6338C7.32275 38.7305 7.59521 38.915 7.79443 39.1875C7.99658 39.457 8.09766 39.7793 8.09766 40.1543C8.09766 40.7285 7.91162 41.1797 7.53955 41.5078C7.16748 41.8359 6.6416 42 5.96191 42H3.74268ZM4.58643 39.0073V41.3101H5.97949C6.37207 41.3101 6.68115 41.209 6.90674 41.0068C7.13525 40.8018 7.24951 40.5205 7.24951 40.1631C7.24951 39.3926 6.83057 39.0073 5.99268 39.0073H4.58643ZM4.58643 38.3306H5.86084C6.22998 38.3306 6.52441 38.2383 6.74414 38.0537C6.9668 37.8691 7.07812 37.6187 7.07812 37.3022C7.07812 36.9507 6.97559 36.6958 6.77051 36.5376C6.56543 36.3765 6.25342 36.2959 5.83447 36.2959H4.58643V38.3306ZM13.8545 35.6016V39.9521C13.8516 40.5557 13.6611 41.0493 13.2832 41.4331C12.9082 41.8169 12.3984 42.0322 11.7539 42.0791L11.5298 42.0879C10.8296 42.0879 10.2715 41.8989 9.85547 41.521C9.43945 41.1431 9.22852 40.623 9.22266 39.9609V35.6016H10.0576V39.9346C10.0576 40.3975 10.1851 40.7578 10.4399 41.0156C10.6948 41.2705 11.0581 41.3979 11.5298 41.3979C12.0073 41.3979 12.3721 41.2705 12.624 41.0156C12.8789 40.7607 13.0063 40.4019 13.0063 39.939V35.6016H13.8545ZM17.0713 39.1479C16.3477 38.9399 15.8203 38.6851 15.4893 38.3833C15.1611 38.0786 14.9971 37.7036 14.9971 37.2583C14.9971 36.7544 15.1978 36.3384 15.5991 36.0103C16.0034 35.6792 16.5278 35.5137 17.1724 35.5137C17.6118 35.5137 18.0029 35.5986 18.3457 35.7686C18.6914 35.9385 18.958 36.1729 19.1455 36.4717C19.3359 36.7705 19.4312 37.0972 19.4312 37.4517H18.583C18.583 37.0649 18.46 36.7617 18.2139 36.542C17.9678 36.3193 17.6206 36.208 17.1724 36.208C16.7563 36.208 16.4312 36.3003 16.1968 36.4849C15.9653 36.6665 15.8496 36.9199 15.8496 37.2451C15.8496 37.5059 15.9595 37.7271 16.1792 37.9087C16.4019 38.0874 16.7783 38.2515 17.3086 38.4009C17.8418 38.5503 18.2578 38.7158 18.5566 38.8975C18.8584 39.0762 19.0811 39.2856 19.2246 39.5259C19.3711 39.7661 19.4443 40.0488 19.4443 40.374C19.4443 40.8926 19.2422 41.3086 18.8379 41.6221C18.4336 41.9326 17.8931 42.0879 17.2163 42.0879C16.7769 42.0879 16.3667 42.0044 15.9858 41.8374C15.605 41.6675 15.3105 41.436 15.1025 41.1431C14.8975 40.8501 14.7949 40.5176 14.7949 40.1455H15.6431C15.6431 40.5322 15.7852 40.8384 16.0693 41.064C16.3564 41.2866 16.7388 41.3979 17.2163 41.3979C17.6616 41.3979 18.0029 41.3071 18.2402 41.1255C18.4775 40.9438 18.5962 40.6963 18.5962 40.3828C18.5962 40.0693 18.4863 39.8276 18.2666 39.6577C18.0469 39.4849 17.6484 39.3149 17.0713 39.1479ZM25.2363 39.9697C25.1572 40.6465 24.9067 41.1694 24.4849 41.5386C24.0659 41.9048 23.5078 42.0879 22.8105 42.0879C22.0547 42.0879 21.4482 41.8169 20.9912 41.2749C20.5371 40.7329 20.3101 40.0078 20.3101 39.0996V38.4844C20.3101 37.8896 20.4155 37.3667 20.6265 36.9155C20.8403 36.4644 21.1421 36.1187 21.5317 35.8784C21.9214 35.6353 22.3726 35.5137 22.8853 35.5137C23.5649 35.5137 24.1099 35.7041 24.52 36.085C24.9302 36.4629 25.1689 36.9873 25.2363 37.6582H24.3882C24.3149 37.1484 24.1553 36.7793 23.9092 36.5508C23.666 36.3223 23.3247 36.208 22.8853 36.208C22.3462 36.208 21.9229 36.4072 21.6152 36.8057C21.3105 37.2041 21.1582 37.771 21.1582 38.5063V39.126C21.1582 39.8203 21.3032 40.3726 21.5933 40.7827C21.8833 41.1929 22.2891 41.3979 22.8105 41.3979C23.2793 41.3979 23.6382 41.2925 23.8872 41.0815C24.1392 40.8677 24.3062 40.4971 24.3882 39.9697H25.2363ZM29.9253 40.3301H27.2446L26.6426 42H25.7725L28.2158 35.6016H28.9541L31.4019 42H30.5361L29.9253 40.3301ZM27.4995 39.6357H29.6748L28.585 36.6431L27.4995 39.6357ZM34.6099 39.4116H33.1069V42H32.2588V35.6016H34.377C35.0977 35.6016 35.6514 35.7656 36.0381 36.0938C36.4277 36.4219 36.6226 36.8994 36.6226 37.5264C36.6226 37.9248 36.5142 38.272 36.2974 38.5679C36.0835 38.8638 35.7847 39.085 35.4009 39.2314L36.9038 41.9473V42H35.9985L34.6099 39.4116ZM33.1069 38.7217H34.4033C34.8223 38.7217 35.1548 38.6133 35.4009 38.3965C35.6499 38.1797 35.7744 37.8896 35.7744 37.5264C35.7744 37.1309 35.6558 36.8276 35.4185 36.6167C35.1841 36.4058 34.8442 36.2988 34.3989 36.2959H33.1069V38.7217Z" fill="black"/>
</g>
</svg>
