<svg width="36" height="36" viewBox="0 0 36 36" fill="none" xmlns="http://www.w3.org/2000/svg">
<g id="Iconly/Bold/Setting">
<g id="Setting">
<path id="Setting_2" fill-rule="evenodd" clip-rule="evenodd" d="M30.6035 20.3701C31.14 20.6551 31.5539 21.1051 31.8452 21.5551C32.4124 22.4851 32.3664 23.6251 31.8145 24.6301L30.7415 26.4301C30.1743 27.3901 29.1166 27.9901 28.0282 27.9901C27.4917 27.9901 26.8938 27.8401 26.4033 27.5401C26.0047 27.2851 25.5448 27.1951 25.0543 27.1951C23.5367 27.1951 22.2643 28.4401 22.2184 29.9251C22.2184 31.6501 20.8081 33.0001 19.0452 33.0001H16.9604C15.1822 33.0001 13.7719 31.6501 13.7719 29.9251C13.7412 28.4401 12.4689 27.1951 10.9513 27.1951C10.4454 27.1951 9.98553 27.2851 9.60229 27.5401C9.11175 27.8401 8.49858 27.9901 7.97738 27.9901C6.87367 27.9901 5.81594 27.3901 5.24876 26.4301L4.19103 24.6301C3.62384 23.6551 3.59318 22.4851 4.16037 21.5551C4.40564 21.1051 4.86552 20.6551 5.38672 20.3701C5.81594 20.1601 6.09187 19.8151 6.35247 19.4101C7.11894 18.1201 6.65906 16.4251 5.35606 15.6601C3.83845 14.8051 3.34791 12.9001 4.22169 11.4151L5.24876 9.64512C6.13786 8.16012 8.0387 7.63512 9.57164 8.50512C10.9053 9.22512 12.6375 8.74512 13.4193 7.47012C13.6646 7.05012 13.8025 6.60012 13.7719 6.15012C13.7412 5.56512 13.9098 5.01012 14.2011 4.56012C14.7683 3.63012 15.7954 3.03012 16.9144 3.00012H19.0758C20.2102 3.00012 21.2373 3.63012 21.8045 4.56012C22.0804 5.01012 22.2643 5.56512 22.2184 6.15012C22.1877 6.60012 22.3257 7.05012 22.5709 7.47012C23.3527 8.74512 25.0849 9.22512 26.4339 8.50512C27.9515 7.63512 29.8677 8.16012 30.7415 9.64512L31.7686 11.4151C32.6577 12.9001 32.1671 14.8051 30.6342 15.6601C29.3312 16.4251 28.8713 18.1201 29.6531 19.4101C29.8984 19.8151 30.1743 20.1601 30.6035 20.3701ZM13.6645 18.0151C13.6645 20.3701 15.6114 22.2451 18.0181 22.2451C20.4248 22.2451 22.3256 20.3701 22.3256 18.0151C22.3256 15.6601 20.4248 13.7701 18.0181 13.7701C15.6114 13.7701 13.6645 15.6601 13.6645 18.0151Z" fill="#130F26"/>
</g>
</g>
</svg>
