<svg width="32" height="32" viewBox="0 0 32 32" fill="none" xmlns="http://www.w3.org/2000/svg">
<g id="Iconly/Bold/Star" filter="url(#filter0_d)">
<rect width="24" height="24" transform="translate(4)" fill="#F7DEDA"/>
<g id="Star">
<path id="Star_2" d="M21.9184 14.32C21.6594 14.571 21.5404 14.934 21.5994 15.29L22.4884 20.21C22.5634 20.627 22.3874 21.049 22.0384 21.29C21.6964 21.54 21.2414 21.57 20.8684 21.37L16.4394 19.06C16.2854 18.978 16.1144 18.934 15.9394 18.929H15.6684C15.5744 18.943 15.4824 18.973 15.3984 19.019L10.9684 21.34C10.7494 21.45 10.5014 21.489 10.2584 21.45C9.66639 21.338 9.27139 20.774 9.36839 20.179L10.2584 15.259C10.3174 14.9 10.1984 14.535 9.93939 14.28L6.32839 10.78C6.02639 10.487 5.92139 10.047 6.05939 9.65C6.19339 9.254 6.53539 8.965 6.94839 8.9L11.9184 8.179C12.2964 8.14 12.6284 7.91 12.7984 7.57L14.9884 3.08C15.0404 2.98 15.1074 2.888 15.1884 2.81L15.2784 2.74C15.3254 2.688 15.3794 2.645 15.4394 2.61L15.5484 2.57L15.7184 2.5H16.1394C16.5154 2.539 16.8464 2.764 17.0194 3.1L19.2384 7.57C19.3984 7.897 19.7094 8.124 20.0684 8.179L25.0384 8.9C25.4584 8.96 25.8094 9.25 25.9484 9.65C26.0794 10.051 25.9664 10.491 25.6584 10.78L21.9184 14.32Z" fill="#130F26"/>
</g>
</g>
<defs>
<filter id="filter0_d" x="0" y="0" width="32" height="32" filterUnits="userSpaceOnUse" color-interpolation-filters="sRGB">
<feFlood flood-opacity="0" result="BackgroundImageFix"/>
<feColorMatrix in="SourceAlpha" type="matrix" values="0 0 0 0 0 0 0 0 0 0 0 0 0 0 0 0 0 0 127 0"/>
<feOffset dy="4"/>
<feGaussianBlur stdDeviation="2"/>
<feColorMatrix type="matrix" values="0 0 0 0 0 0 0 0 0 0 0 0 0 0 0 0 0 0 0.25 0"/>
<feBlend mode="normal" in2="BackgroundImageFix" result="effect1_dropShadow"/>
<feBlend mode="normal" in="SourceGraphic" in2="effect1_dropShadow" result="shape"/>
</filter>
</defs>
</svg>
