<svg width="25" height="22" viewBox="0 0 25 22" fill="none" xmlns="http://www.w3.org/2000/svg">
<path d="M23.1886 8.84752C23.0876 8.83113 22.9855 8.82358 22.8832 8.8249H5.47802L5.85754 8.64838C6.22852 8.47279 6.56601 8.23382 6.8549 7.94228L11.7358 3.06142C12.3786 2.44779 12.4866 1.46064 11.9917 0.722496C11.4158 -0.064079 10.3112 -0.234865 9.52458 0.341096C9.46104 0.387654 9.40063 0.438405 9.34387 0.493016L0.517723 9.31916C-0.172041 10.0082 -0.172647 11.1258 0.516344 11.8156C0.516785 11.816 0.517281 11.8165 0.517723 11.817L9.34387 20.6431C10.0342 21.3315 11.1519 21.3299 11.8403 20.6396C11.8945 20.5853 11.945 20.5275 11.9917 20.4666C12.4866 19.7284 12.3786 18.7413 11.7358 18.1277L6.86372 13.238C6.60473 12.9787 6.30696 12.7613 5.98111 12.5937L5.45154 12.3554H22.7861C23.6878 12.3888 24.479 11.7589 24.6484 10.8726C24.8045 9.91024 24.1509 9.00363 23.1886 8.84752Z" fill="#630092"/>
</svg>
