<svg xmlns="http://www.w3.org/2000/svg" xmlns:xlink="http://www.w3.org/1999/xlink" width="1280" height="800" viewBox="0 0 1280 800">
  <defs>
    <clipPath id="clip-Desktop">
      <rect width="1280" height="800"/>
    </clipPath>
  </defs>
  <g id="Desktop" clip-path="url(#clip-Desktop)">
    <rect width="1280" height="800" fill="#fff"/>
    <g id="Trazado_64" data-name="Trazado 64" fill="#fff">
      <path d="M 1279.5 799.5 L 0.5 799.5 L 0.5 0.5 L 1279.5 0.5 L 1279.5 799.5 Z" stroke="none"/>
      <path d="M 1 1 L 1 799 L 1279 799 L 1279 1 L 1 1 M 0 0 L 1280 0 L 1280 800 L 0 800 L 0 0 Z" stroke="none" fill="#707070"/>
    </g>
    <g id="Doubs" transform="translate(-77.041 -231.802)" opacity="0.85">
      <path id="Shape" d="M818.58,277.374c0,271.494-396.374,711.046-543.529,711.046S0,818,0,385.434C0,148.9,107.105,0,254.26,0S818.58,5.879,818.58,277.374Z" transform="translate(33.478 60.424)" fill="#e16197"/>
      <path id="Shape-2" data-name="Shape" d="M115.363,745.217c-197.53-40.319-93.521-316.75-37.3-457.871C130.15,156.612,247.336-22.56,447.136,2.339,681.124,31.5,767.81,338.537,743.057,459.823S312.893,785.535,115.363,745.217Z" transform="translate(0 428.275)" fill="#9844af"/>
      <path id="Shape-3" data-name="Shape" d="M298.226,554.791C100.664,514.451-53.159,389.174,17.433,190.09,117.055-90.854,211.586,15.577,411.417,40.49,645.445,69.667,725.533,286.758,700.773,408.108S495.789,595.134,298.226,554.791Z" transform="translate(109.416 576.068)" fill="#f4f3ef" opacity="0.1"/>
      <path id="Shape-4" data-name="Shape" d="M224.725,443.812C65.4,411.223-33.442,305.3,10.439,198.445,51.091,99.454,242.926-94.06,310.841,53.706,411.292,272.252,565.907,244.051,547.155,336.118S384.046,476.4,224.725,443.812Z" transform="translate(129.013 782.652)" fill="#e2164b"/>
      <path id="Shape-5" data-name="Shape" d="M72.927,153.927C115.815-34.367,344.6-56.2,316.4,123.362c-19.482,124.032,38.525,204.776,131.255,312.2C517.8,516.831,333.086,639.323,50.2,489.282-24.777,441.326-14.6,291.182,72.927,153.927Z" transform="translate(57.158 687.934)" fill="#2e39a9"/>
      <path id="Shape-6" data-name="Shape" d="M62.514,50.608C225-203.777,364.2,593.086,74.024,407.793-19.989,347.761-25.142,187.845,62.514,50.608Z" transform="translate(22.863 774.078)" fill="#0ab7e0"/>
      <path id="Shape-7" data-name="Shape" d="M337.4,55.978C317.173,243.936,857.88,67.343,765.487,232.168S425.388,465.135,292.538,330.9C183.713,220.941-67.307,344.135,17,214.341,93.114,97.177,353.77-96.066,337.4,55.978Z" transform="translate(610.771 145.752)" fill="#ffcd00"/>
      <path id="Shape-8" data-name="Shape" d="M411.608,293.853C226.872,304.489,306.969,537.308,466.243,617.3,325.347,617.3,0,484.582,0,322.291S15.6,0,156.494,0,411.608,131.563,411.608,293.853Z" transform="translate(1032.105 673.236)" fill="#0ab7e0"/>
      <path id="Shape-9" data-name="Shape" d="M422.559,340.6c0,188.108-104.935,257.108-217.942,257.108S0,445.215,0,257.108,104.933,0,217.942,0,422.559,152.491,422.559,340.6Z" transform="translate(1330.141 249.044)" fill="#e16197"/>
      <path id="Shape-10" data-name="Shape" d="M305.889,422.914c-73.973,47.616-125.515,40.664-225.041-12.452S-27.536,277.121,61.063,111.681,228.647-1.669,305.889,54.676C406.87,128.336,498.326,299.042,305.889,422.914Z" transform="translate(1213.785)" fill="#9844af"/>
      <path id="Shape-11" data-name="Shape" d="M318.424,1.649c258.3,25.837,355.362,360.153,337.165,543S533.53,520.367,275.227,494.529,59.646,406.81,77.843,223.961C-105.751,262.792,60.121-24.191,318.424,1.649Z" transform="translate(1022.714 204.951)" fill="#2e39a9"/>
      <path id="Shape-12" data-name="Shape" d="M243.552,1.175c140.962,14.064,181.54,288.139,171.609,387.654S348.552,375.614,207.59,361.55-9.061,300.976.868,201.463,102.591-12.886,243.552,1.175Z" transform="translate(1221.803 407.063)" fill="#f4f3ef" opacity="0.1"/>
      <path id="Shape-13" data-name="Shape" d="M337.651.677c92.514,9.232,21.21,230.777,12.455,318.522s-43.568-10.142-136.086-19.374S-8.332,253.768.42,166.026,245.133-8.556,337.651.677Z" transform="translate(1113.759 480.941)" fill="#0ab7e0"/>
      <path id="Shape-14" data-name="Shape" d="M495.869,183.745c96.107,173.272-4.171,430.443-117.987,493.976S103,552.374,22.292,407.9,92.665-40.3,272.658,4.455C366.588,27.811,448.933,99.128,495.869,183.745Z" transform="translate(1154.994 599.339)" fill="#9844af"/>
      <path id="Shape-15" data-name="Shape" d="M356.394,311.816c5.217,119.374-37.071,204.053-106.258,242.693s-170.06-68.658-216.154-164.1C-64.35,186.8,67.885-84.522,211.905,25.272,300.272,92.636,351.536,200.619,356.394,311.816Z" transform="translate(1285.64 721.003)" fill="#f4f3ef" opacity="0.1"/>
      <path id="Shape-16" data-name="Shape" d="M206.247,94.762c5.214,119.4-50.857,236.592-106.2,242.746C23.7,345.993,2.3,252.743.062,175.888c-2.3-78.9,59.682-282.437,99.985-105.836C129.821,200.523,201.391-16.46,206.247,94.762Z" transform="translate(1528.968 879.82)" fill="#e2164b"/>
      <path id="Shape-17" data-name="Shape" d="M762.084,319.657C689.921,458.754,385.608,633.206,100.207,563s129.539-107.186,129.539-269.36S321.365,0,462.038,0c60.5,0,116.061,24.292,159.753,64.905C712.151,122.651,806.626,233.8,762.084,319.657Z" transform="translate(725.313 673.644)" fill="#ff612e"/>
      <path id="Shape-18" data-name="Shape" d="M361.578,415.555C198.895,456.731-38.808,441.691,5.381,317.8,78.456,112.935,255.279-24.065,474,3.529,560.059,14.384,642.412,81.784,683.42,144.467,777.735,288.628,609.806,352.726,361.578,415.555Z" transform="translate(676.91 612.812)" fill="#ffcd00"/>
      <path id="Shape-19" data-name="Shape" d="M192.074,3.34C354.125,33.705,575.63,165.494,479.957,359.06,426.9,466.4,189.464,556.866,107.2,520.122-29.166,459.216-69.322-45.638,192.074,3.34Z" transform="translate(794.9 486.657)" fill="#b2cd0d"/>
      <path id="Shape-20" data-name="Shape" d="M583.894,303.784c0,167.561-201.426,414.038-362.663,414.038S0,471.345,0,303.784,59.992,0,221.231,0,583.894,136.227,583.894,303.784Z" transform="translate(800.812 310.227) rotate(35.025)" fill="#0ab7e0"/>
      <path id="Shape-21" data-name="Shape" d="M567.085,303.4c0,167.35-164.569,413.517-296.3,413.517S0,525.809,0,358.46,139.048,0,270.782,0,567.085,136.055,567.085,303.4Z" transform="matrix(0.682, 0.731, -0.731, 0.682, 807.549, 294.885)" fill="#2e39a9"/>
    </g>
  </g>
</svg>
