<svg xmlns="http://www.w3.org/2000/svg" xmlns:xlink="http://www.w3.org/1999/xlink" width="360" height="760" viewBox="0 0 360 760">
  <defs>
    <clipPath id="clip-Mobile">
      <rect width="360" height="760"/>
    </clipPath>
  </defs>
  <g id="Mobile" clip-path="url(#clip-Mobile)">
    <rect width="360" height="760" fill="#fff"/>
    <g id="Doubs" transform="translate(-460.041 -243.802)" opacity="0.85">
      <path id="Shape" d="M726.451,246.156c0,240.938-351.763,631.02-482.356,631.02S0,725.932,0,342.054C0,132.138,95.051,0,225.644,0S726.451,5.217,726.451,246.156Z" transform="translate(29.71 53.623)" fill="#e16197"/>
      <path id="Shape-2" data-name="Shape" d="M102.379,661.345c-175.3-35.781-83-281.1-33.1-406.339C115.5,138.986,219.5-20.021,396.812,2.076c207.653,25.879,284.582,298.359,262.615,406S277.677,697.125,102.379,661.345Z" transform="translate(0 380.073)" fill="#9844af"/>
      <path id="Shape-3" data-name="Shape" d="M264.661,492.351C89.334,456.551-47.177,345.374,15.471,168.7,103.88-80.628,187.772,13.824,365.113,35.933,572.8,61.826,643.876,254.484,621.9,362.177S439.989,528.153,264.661,492.351Z" transform="translate(97.102 511.233)" fill="#f4f3ef" opacity="0.1"/>
      <path id="Shape-4" data-name="Shape" d="M199.433,393.862C58.041,364.941-29.678,270.943,9.264,176.111,45.341,88.261,215.585-83.474,275.857,47.661,365,241.611,502.216,216.584,485.574,298.289S340.822,422.784,199.433,393.862Z" transform="translate(114.493 694.567)" fill="#4d56b5"/>
      <path id="Shape-5" data-name="Shape" d="M199.433,393.862C58.041,364.941-29.678,270.943,9.264,176.111,45.341,88.261,215.585-83.474,275.857,47.661,365,241.611,502.216,216.584,485.574,298.289S340.822,422.784,199.433,393.862Z" transform="translate(496.493 737.567)" fill="#a75fbb"/>
      <path id="Shape-6" data-name="Shape" d="M64.719,136.6c38.061-167.1,241.1-186.479,216.067-27.125C263.5,219.55,314.976,291.206,397.269,386.542,459.524,458.663,295.6,567.369,44.554,434.215-21.989,391.656-12.961,258.41,64.719,136.6Z" transform="translate(50.725 610.509)" fill="#2e39a9"/>
      <path id="Shape-7" data-name="Shape" d="M55.478,44.912C199.676-180.843,323.214,526.336,65.693,361.9-17.739,308.621-22.312,166.7,55.478,44.912Z" transform="translate(20.29 686.958)" fill="#0ab7e0"/>
      <path id="Shape-8" data-name="Shape" d="M299.43,49.678c-17.954,166.8,461.9,10.086,379.9,156.36S377.511,412.786,259.614,293.66C163.036,196.074-59.732,305.4,15.09,190.218,82.635,86.24,313.954-85.254,299.43,49.678Z" transform="translate(542.03 129.348)" fill="#ffcd00"/>
      <path id="Shape-9" data-name="Shape" d="M365.283,260.781c-163.945,9.439-92.862,216.054,48.486,287.046C288.73,547.827,0,430.044,0,286.018S13.844,0,138.881,0,365.283,116.756,365.283,260.781Z" transform="translate(915.944 597.465)" fill="#0ab7e0"/>
      <path id="Shape-10" data-name="Shape" d="M375,302.265c0,166.937-93.125,228.171-193.413,228.171S0,395.107,0,228.171,93.123,0,193.413,0,375,135.329,375,302.265Z" transform="translate(1180.438 221.015)" fill="#e16197"/>
      <path id="Shape-11" data-name="Shape" d="M271.462,375.316C205.814,417.573,160.073,411.4,71.748,364.265S-24.437,245.932,54.191,99.112,202.913-1.481,271.462,48.522C361.078,113.892,442.241,265.386,271.462,375.316Z" transform="translate(1077.176 0)" fill="#9844af"/>
      <path id="Shape-12" data-name="Shape" d="M282.586,1.463C511.818,24.393,597.953,321.082,581.8,483.352S473.483,461.8,244.251,438.871,52.933,361.025,69.082,198.755C-93.849,233.216,53.354-21.468,282.586,1.463Z" transform="translate(907.611 181.884)" fill="#2e39a9"/>
      <path id="Shape-13" data-name="Shape" d="M216.141,1.043c125.1,12.481,161.108,255.71,152.294,344.025s-59.112-11.728-184.209-24.209S-8.042,267.1.77,178.789,91.045-11.436,216.141,1.043Z" transform="translate(1084.293 361.249)" fill="#f4f3ef" opacity="0.1"/>
      <path id="Shape-14" data-name="Shape" d="M299.649.6c82.1,8.193,18.823,204.8,11.053,282.673s-38.665-9-120.769-17.194S-7.394,225.207.373,147.34,217.544-7.593,299.649.6Z" transform="translate(988.408 426.812)" fill="#fff"/>
      <path id="Shape-15" data-name="Shape" d="M440.06,163.065c85.29,153.771-3.7,382-104.708,438.38S91.407,490.206,19.783,361.993,82.236-35.761,241.971,3.954C325.329,24.681,398.407,87.971,440.06,163.065Z" transform="translate(1025.002 531.885)" fill="#9844af"/>
      <path id="Shape-16" data-name="Shape" d="M316.283,276.722c4.63,105.939-32.9,181.087-94.3,215.379S71.064,431.171,30.157,346.468c-87.265-180.695,30.087-421.477,157.9-324.04C266.477,82.21,311.971,178.04,316.283,276.722Z" transform="translate(1140.944 639.856)" fill="#f4f3ef" opacity="0.1"/>
      <path id="Shape-17" data-name="Shape" d="M183.034,84.1c4.628,105.961-45.133,209.964-94.248,215.425C21.029,307.052,2.042,224.3.055,156.092-1.985,86.068,53.02-94.557,88.787,62.168,115.21,177.955,178.725-14.608,183.034,84.1Z" transform="translate(1356.887 780.799)" fill="#e2164b"/>
      <path id="Shape-18" data-name="Shape" d="M676.314,283.681C612.272,407.123,342.209,561.94,88.929,499.639s114.959-95.123,114.959-239.045S285.2,0,410.037,0c53.688,0,103,21.558,141.773,57.6C632,108.847,715.843,207.487,676.314,283.681Z" transform="translate(643.681 597.827)" fill="#ff612e"/>
      <path id="Shape-19" data-name="Shape" d="M320.883,368.786C176.509,405.327-34.44,391.98,4.776,282.034c64.85-181.809,221.773-303.39,415.877-278.9C497.026,12.765,570.11,72.579,606.5,128.208,690.2,256.144,541.174,313.028,320.883,368.786Z" transform="translate(600.726 543.842)" fill="#ffcd00"/>
      <path id="Shape-20" data-name="Shape" d="M170.456,2.964c143.813,26.948,340.388,143.9,255.483,315.684-47.083,95.258-257.8,175.544-330.806,142.935C-25.883,407.532-61.52-40.5,170.456,2.964Z" transform="translate(705.436 431.885)" fill="#b2cd0d"/>
      <path id="Shape-21" data-name="Shape" d="M518.178,269.594c0,148.7-178.756,367.439-321.846,367.439S0,418.3,0,269.594,53.24,0,196.332,0,518.178,120.895,518.178,269.594Z" transform="translate(710.683 275.311) rotate(35.025)" fill="#0ab7e0"/>
      <path id="Shape-22" data-name="Shape" d="M503.261,269.255c0,148.516-146.047,366.977-262.955,366.977S0,466.631,0,318.116,123.4,0,240.306,0,503.261,120.742,503.261,269.255Z" transform="matrix(0.682, 0.731, -0.731, 0.682, 716.661, 261.696)" fill="#fff"/>
    </g>
  </g>
</svg>
