<?xml version="1.0" encoding="utf-8"?>
<!-- Generator: Adobe Illustrator 21.1.0, SVG Export Plug-In . SVG Version: 6.00 Build 0)  -->
<svg version="1.1" id="Layer_1" xmlns="http://www.w3.org/2000/svg" xmlns:xlink="http://www.w3.org/1999/xlink" x="0px" y="0px"
	 viewBox="0 0 225.5 79.6" style="enable-background:new 0 0 225.5 79.6;" xml:space="preserve">
<style type="text/css">
	.st0{clip-path:url(#SVGID_2_);}
	.st1{fill:#E82DC5;}
	.st2{clip-path:url(#SVGID_4_);}
	.st3{clip-path:url(#SVGID_6_);}
	.st4{clip-path:url(#SVGID_8_);}
	.st5{clip-path:url(#SVGID_10_);}
	.st6{fill:#F211A1;}
	.st7{fill:#5FBD7A;}
	.st8{clip-path:url(#SVGID_12_);}
	.st9{clip-path:url(#SVGID_14_);}
	.st10{clip-path:url(#SVGID_16_);}
	.st11{fill:#1100F7;}
	.st12{opacity:0.69;}
	.st13{clip-path:url(#SVGID_18_);}
	.st14{clip-path:url(#SVGID_20_);}
	.st15{clip-path:url(#SVGID_22_);}
	.st16{fill:#3AC7ED;}
	.st17{opacity:0.89;fill:#FF7900;}
	.st18{opacity:0.54;fill:#FCDE06;}
	.st19{fill:#1BB9EF;}
	.st20{opacity:0.4;fill:#841DDD;}
	.st21{opacity:0.46;}
	.st22{clip-path:url(#SVGID_24_);fill:#3319B2;}
	.st23{clip-path:url(#SVGID_24_);fill:none;}
	.st24{fill:#3319B2;}
	.st25{clip-path:url(#SVGID_26_);}
	.st26{clip-path:url(#SVGID_28_);}
	.st27{clip-path:url(#SVGID_30_);}
	.st28{clip-path:url(#SVGID_32_);}
	.st29{clip-path:url(#SVGID_34_);}
	.st30{clip-path:url(#SVGID_36_);}
	.st31{clip-path:url(#SVGID_38_);fill:#3319B2;}
	.st32{clip-path:url(#SVGID_38_);fill:none;}
	.st33{fill:#FFFFFF;}
	.st34{clip-path:url(#SVGID_40_);}
	.st35{clip-path:url(#SVGID_42_);}
	.st36{clip-path:url(#SVGID_44_);}
	.st37{clip-path:url(#SVGID_46_);}
	.st38{clip-path:url(#SVGID_48_);}
	.st39{clip-path:url(#SVGID_50_);}
	.st40{clip-path:url(#SVGID_52_);fill:#3319B2;}
	.st41{clip-path:url(#SVGID_52_);fill:none;}
	.st42{fill:#2204B2;}
	.st43{fill:none;stroke:#2204B2;stroke-miterlimit:10;}
	.st44{clip-path:url(#SVGID_54_);}
	.st45{clip-path:url(#SVGID_56_);}
	.st46{clip-path:url(#SVGID_58_);}
	.st47{clip-path:url(#SVGID_60_);}
	.st48{clip-path:url(#SVGID_62_);}
	.st49{clip-path:url(#SVGID_64_);}
	.st50{clip-path:url(#SVGID_66_);fill:#3319B2;}
	.st51{clip-path:url(#SVGID_66_);fill:none;}
	.st52{fill:none;stroke:#FFFFFF;stroke-miterlimit:10;}
	.st53{clip-path:url(#SVGID_68_);}
	.st54{clip-path:url(#SVGID_70_);}
	.st55{clip-path:url(#SVGID_72_);}
	.st56{clip-path:url(#SVGID_74_);}
	.st57{clip-path:url(#SVGID_76_);}
	.st58{clip-path:url(#SVGID_78_);}
	.st59{clip-path:url(#SVGID_80_);fill:#3319B2;}
	.st60{clip-path:url(#SVGID_80_);fill:none;}
	.st61{fill:#FFCE00;}
	.st62{clip-path:url(#SVGID_82_);}
	.st63{clip-path:url(#SVGID_84_);}
	.st64{clip-path:url(#SVGID_86_);}
	.st65{clip-path:url(#SVGID_88_);}
	.st66{clip-path:url(#SVGID_90_);}
	.st67{clip-path:url(#SVGID_92_);}
	.st68{clip-path:url(#SVGID_94_);fill:#3319B2;}
	.st69{clip-path:url(#SVGID_94_);fill:none;}
	.st70{clip-path:url(#SVGID_96_);}
	.st71{clip-path:url(#SVGID_98_);}
	.st72{clip-path:url(#SVGID_100_);}
	.st73{clip-path:url(#SVGID_102_);}
	.st74{clip-path:url(#SVGID_104_);}
	.st75{clip-path:url(#SVGID_106_);}
	.st76{clip-path:url(#SVGID_108_);fill:#3319B2;}
	.st77{clip-path:url(#SVGID_108_);fill:none;}
	.st78{fill:#6002B2;}
	.st79{fill:none;stroke:#6002B2;stroke-miterlimit:10;}
	.st80{opacity:0.83;}
	.st81{clip-path:url(#SVGID_110_);}
	.st82{clip-path:url(#SVGID_112_);}
	.st83{clip-path:url(#SVGID_114_);}
	.st84{clip-path:url(#SVGID_116_);}
	.st85{clip-path:url(#SVGID_118_);}
	.st86{clip-path:url(#SVGID_120_);}
	.st87{clip-path:url(#SVGID_122_);fill:#3319B2;}
	.st88{clip-path:url(#SVGID_122_);fill:none;}
	.st89{clip-path:url(#SVGID_124_);}
	.st90{clip-path:url(#SVGID_126_);}
	.st91{clip-path:url(#SVGID_128_);}
	.st92{clip-path:url(#SVGID_130_);}
	.st93{clip-path:url(#SVGID_132_);}
	.st94{clip-path:url(#SVGID_134_);}
	.st95{clip-path:url(#SVGID_136_);fill:#3319B2;}
	.st96{clip-path:url(#SVGID_136_);fill:none;}
	.st97{clip-path:url(#SVGID_138_);}
	.st98{clip-path:url(#SVGID_140_);}
	.st99{clip-path:url(#SVGID_142_);}
	.st100{clip-path:url(#SVGID_144_);}
	.st101{clip-path:url(#SVGID_146_);}
	.st102{clip-path:url(#SVGID_148_);}
	.st103{clip-path:url(#SVGID_150_);fill:#3319B2;}
	.st104{clip-path:url(#SVGID_150_);fill:none;}
	.st105{clip-path:url(#SVGID_152_);}
	.st106{clip-path:url(#SVGID_154_);}
	.st107{clip-path:url(#SVGID_156_);}
	.st108{clip-path:url(#SVGID_158_);}
	.st109{clip-path:url(#SVGID_160_);}
	.st110{clip-path:url(#SVGID_162_);}
	.st111{clip-path:url(#SVGID_164_);fill:#3319B2;}
	.st112{clip-path:url(#SVGID_164_);fill:none;}
	.st113{fill:#E9F406;}
	.st114{clip-path:url(#SVGID_166_);}
	.st115{clip-path:url(#SVGID_168_);}
	.st116{clip-path:url(#SVGID_170_);}
	.st117{clip-path:url(#SVGID_172_);}
	.st118{clip-path:url(#SVGID_174_);}
	.st119{clip-path:url(#SVGID_176_);}
	.st120{clip-path:url(#SVGID_178_);fill:#3319B2;}
	.st121{clip-path:url(#SVGID_178_);fill:none;}
	.st122{clip-path:url(#SVGID_180_);}
	.st123{clip-path:url(#SVGID_182_);}
	.st124{clip-path:url(#SVGID_184_);}
	.st125{clip-path:url(#SVGID_186_);}
	.st126{clip-path:url(#SVGID_188_);}
	.st127{clip-path:url(#SVGID_190_);}
	.st128{clip-path:url(#SVGID_192_);fill:#3319B2;}
	.st129{clip-path:url(#SVGID_192_);fill:none;}
	.st130{clip-path:url(#SVGID_194_);}
	.st131{clip-path:url(#SVGID_196_);}
	.st132{clip-path:url(#SVGID_198_);}
	.st133{clip-path:url(#SVGID_200_);}
	.st134{clip-path:url(#SVGID_202_);}
	.st135{clip-path:url(#SVGID_204_);}
	.st136{clip-path:url(#SVGID_206_);fill:#3319B2;}
	.st137{clip-path:url(#SVGID_206_);fill:none;}
	.st138{clip-path:url(#SVGID_208_);}
	.st139{clip-path:url(#SVGID_210_);}
	.st140{clip-path:url(#SVGID_212_);}
	.st141{clip-path:url(#SVGID_214_);}
	.st142{clip-path:url(#SVGID_216_);}
	.st143{clip-path:url(#SVGID_218_);}
	.st144{clip-path:url(#SVGID_220_);fill:#3319B2;}
	.st145{clip-path:url(#SVGID_220_);fill:none;}
</style>
<g>
	<path class="st7" d="M71.5,5.9v35.8c0,1.2-0.4,2.2-1.2,3c-0.8,0.8-1.8,1.1-3,1.1c-1.2,0-2.2-0.4-3-1.1c-0.8-0.8-1.1-1.8-1.1-3V5.9
		c0-1.2,0.4-2.2,1.1-3c0.8-0.8,1.8-1.1,3-1.1C70.1,1.7,71.5,3.1,71.5,5.9z"/>
	<g>
		<g>
			<defs>
				<path id="SVGID_207_" d="M163.6,17.5c0,0,4.7,3.7,4.7,9.2s0,21,0,21h-29.5V9.9h25.6L163.6,17.5z"/>
			</defs>
			<clipPath id="SVGID_2_">
				<use xlink:href="#SVGID_207_"  style="overflow:visible;"/>
			</clipPath>
			<g class="st0">
				<defs>
					<rect id="SVGID_209_" x="140.8" y="13.8" width="31.1" height="35.4"/>
				</defs>
				<clipPath id="SVGID_4_">
					<use xlink:href="#SVGID_209_"  style="overflow:visible;"/>
				</clipPath>
				<g class="st2">
					<defs>
						<path id="SVGID_211_" d="M163.6,17.5c0,0,3.6,2.3,4.7,7.1s3.6,21.2,3.6,21.2l-48.7,52.7L5.2,88.3l13.2-75.7l49-42.4l86.2,35.5
							l9.9-0.4L163.6,17.5z"/>
					</defs>
					<clipPath id="SVGID_6_">
						<use xlink:href="#SVGID_211_"  style="overflow:visible;"/>
					</clipPath>
					<g class="st3">
						<path class="st6" d="M44,46c-4.5,0-8.2-1.5-11.2-4.6c-3-3.1-4.5-6.8-4.5-11.3s1.5-8.2,4.5-11.2c3-3,6.8-4.5,11.2-4.5
							c4.5,0,8.2,1.5,11.2,4.5s4.5,6.8,4.5,11.2V45c0,2.9-1,5.4-3.1,7.5c-2,2-4.5,3.1-7.4,3.1H44c-2.1,0-3.8,0.7-5.3,2.2
							c-1.4,1.5-2.2,3.2-2.2,5.3c0,2.1,0.7,3.8,2.2,5.3c1.4,1.4,3.2,2.2,5.3,2.2c2.1,0,3.8-0.7,5.3-2.2c1.4-1.4,2.2-3.2,2.2-5.3
							c0-1.2,0.4-2.2,1.2-3c0.8-0.8,1.8-1.2,3-1.2c1.2,0,2.2,0.4,3,1.2c0.8,0.8,1.1,1.8,1.1,3c0,4.4-1.5,8.1-4.6,11.2
							c-3.1,3.1-6.8,4.6-11.2,4.6c-4.4,0-8.1-1.5-11.2-4.6c-3.1-3.1-4.6-6.8-4.6-11.2c0-4.4,1.5-8.2,4.5-11.2
							c3-3.1,6.8-4.6,11.2-4.6h5.4c0.6,0,1.1-0.2,1.5-0.6c0.4-0.4,0.6-0.9,0.6-1.5V30.1c0-2.1-0.7-3.8-2.2-5.3
							c-1.4-1.4-3.2-2.2-5.3-2.2c-2.1,0-3.8,0.7-5.3,2.2c-1.4,1.4-2.2,3.2-2.2,5.3c0,2.1,0.7,3.8,2.2,5.3c1.4,1.5,3.2,2.2,5.3,2.2
							c1.2,0,2.2,0.4,3,1.1c0.8,0.8,1.2,1.8,1.2,3c0,1.2-0.4,2.2-1.2,3C46.2,45.6,45.2,46,44,46z"/>
						<path class="st6" d="M71.5,5.9v35.8c0,1.2-0.4,2.2-1.2,3c-0.8,0.8-1.8,1.1-3,1.1c-1.2,0-2.2-0.4-3-1.1c-0.8-0.8-1.1-1.8-1.1-3
							V5.9c0-1.2,0.4-2.2,1.1-3c0.8-0.8,1.8-1.1,3-1.1C70.1,1.8,71.5,3.2,71.5,5.9z"/>
						<path class="st6" d="M101.5,25.4l-7.9,7.7c-0.9,0.9-1.9,1.3-2.9,1.3c-1.2,0-2.2-0.4-3-1.3c-0.8-0.9-1.3-1.9-1.3-3
							c0-1,0.5-2,1.4-2.9l4.5-4.4c-0.5-0.1-1.1-0.1-1.6-0.1c-2.1,0-3.8,0.7-5.3,2.2c-1.4,1.4-2.2,3.2-2.2,5.3c0,2.1,0.7,3.8,2.2,5.3
							c1.4,1.5,3.2,2.2,5.3,2.2h5.5c1.2,0,2.2,0.4,3,1.1c0.8,0.8,1.1,1.8,1.1,3c0,1.2-0.4,2.2-1.1,3c-0.8,0.8-1.8,1.2-3,1.2h-5.5
							c-4.5,0-8.2-1.5-11.2-4.6c-3-3.1-4.5-6.8-4.5-11.3s1.5-8.2,4.5-11.2c3-3,6.8-4.5,11.2-4.5c4.5,0,8.3,1.6,11.4,4.8
							c0.8,0.9,1.2,1.8,1.2,2.8C103.3,23.4,102.7,24.5,101.5,25.4z"/>
						<path class="st6" d="M122.4,46c-4.5,0-8.2-1.5-11.2-4.6s-4.5-6.8-4.5-11.3s1.5-8.2,4.5-11.2s6.8-4.5,11.2-4.5
							c4.5,0,8.2,1.5,11.3,4.5c3.1,3,4.6,6.8,4.6,11.2v11.6c0,1.2-0.4,2.2-1.2,3c-0.8,0.8-1.8,1.1-3,1.1c-1.2,0-2.2-0.4-3-1.1
							c-0.8-0.8-1.1-1.8-1.1-3V30.1c0-2.1-0.7-3.8-2.2-5.3c-1.5-1.4-3.2-2.2-5.3-2.2c-2.1,0-3.8,0.7-5.3,2.2
							c-1.4,1.4-2.2,3.2-2.2,5.3c0,2.1,0.7,3.8,2.2,5.3c1.4,1.5,3.2,2.2,5.3,2.2c1.2,0,2.2,0.4,3,1.1c0.8,0.8,1.2,1.8,1.2,3
							c0,1.2-0.4,2.2-1.2,3C124.7,45.6,123.7,46,122.4,46z"/>
						<path class="st6" d="M177.2,27.7c0-1.4-0.5-2.5-1.5-3.5c-1-1-2.1-1.5-3.5-1.5c-1.6,0-3,0.6-4,1.9v17.1c0,1.2-0.4,2.2-1.2,3
							c-0.8,0.8-1.8,1.1-3,1.1c-1.2,0-2.2-0.4-3-1.1c-0.8-0.8-1.1-1.8-1.1-3v-14c0-1.4-0.5-2.5-1.5-3.5c-1-1-2.2-1.5-3.5-1.5
							c-1.4,0-2.6,0.5-3.6,1.4c-1,0.9-1.5,2.1-1.5,3.5v14c0,1.2-0.4,2.2-1.1,3c-0.8,0.8-1.8,1.1-3,1.1c-1.2,0-2.2-0.4-3-1.1
							c-0.8-0.8-1.2-1.8-1.2-3v-14c0-3.8,1.3-6.9,3.9-9.5s5.7-3.8,9.5-3.8c3.3,0,6.1,1.1,8.7,3.2c2.5-2.1,5.4-3.2,8.7-3.2
							c3.8,0,6.9,1.3,9.5,3.8c2.6,2.6,3.8,5.7,3.8,9.5v18.4c0,1.4,0.5,2.6,1.5,3.6c1,1,2.2,1.5,3.6,1.5h0.2c1.2,0,2.2,0.4,3,1.2
							c0.8,0.8,1.2,1.8,1.2,3c0,1.2-0.4,2.2-1.2,3c-0.8,0.8-1.8,1.1-3,1.1h-0.2c-3.8,0-6.9-1.3-9.5-3.9s-3.9-5.7-3.9-9.5V27.7z"/>
					</g>
				</g>
			</g>
		</g>
		<path class="st11" d="M168.3,26.5c-0.3-5.2-4.2-8.6-4.2-8.6c-3.4,3.2-4,7.2-4.1,8.6h0v15.2c0,2.3,1.9,4.2,4.2,4.2h0
			c2.3,0,4.2-1.9,4.2-4.2L168.3,26.5L168.3,26.5z"/>
		<g class="st12">
			<defs>
				<path id="SVGID_213_" class="st12" d="M181.1,16.9c0,0,5.6,3.3,5.6,12.5l2,13.3l-6.4,5.3l-22.9-0.8l0.5-29.8l16.4-5.5l3.2,1.9
					L181.1,16.9z"/>
			</defs>
			<clipPath id="SVGID_8_">
				<use xlink:href="#SVGID_213_"  style="overflow:visible;"/>
			</clipPath>
			<g class="st4">
				<defs>
					<polygon id="SVGID_215_" points="156,9.9 159,52.6 192.6,46.9 188.4,14.6 					"/>
				</defs>
				<clipPath id="SVGID_10_">
					<use xlink:href="#SVGID_215_"  style="overflow:visible;"/>
				</clipPath>
				<g class="st5">
					<defs>
						<path id="SVGID_217_" d="M182,17.6c0,0,3.6,2.3,4.7,7.1s3.6,21.2,3.6,21.2l-48.7,52.7L23.5,88.4l13.2-75.7l49-42.4L172,5.8
							l9.9-0.4L182,17.6z"/>
					</defs>
					<clipPath id="SVGID_12_">
						<use xlink:href="#SVGID_217_"  style="overflow:visible;"/>
					</clipPath>
					<g class="st8">
						<path class="st16" d="M62.4,46c-4.5,0-8.2-1.5-11.2-4.6s-4.5-6.8-4.5-11.3S48.1,22,51.1,19s6.8-4.5,11.2-4.5
							c4.5,0,8.2,1.5,11.2,4.5c3,3,4.5,6.8,4.5,11.2v14.9c0,2.9-1,5.4-3.1,7.5c-2,2-4.5,3.1-7.4,3.1h-5.3c-2.1,0-3.8,0.7-5.3,2.2
							c-1.4,1.5-2.2,3.2-2.2,5.3c0,2.1,0.7,3.8,2.2,5.3c1.4,1.4,3.2,2.2,5.3,2.2c2.1,0,3.8-0.7,5.3-2.2c1.4-1.4,2.2-3.2,2.2-5.3
							c0-1.2,0.4-2.2,1.2-3c0.8-0.8,1.8-1.2,3-1.2c1.2,0,2.2,0.4,3,1.2c0.8,0.8,1.1,1.8,1.1,3c0,4.4-1.5,8.1-4.6,11.2
							c-3.1,3.1-6.8,4.6-11.2,4.6c-4.4,0-8.1-1.5-11.2-4.6c-3.1-3.1-4.6-6.8-4.6-11.2c0-4.4,1.5-8.2,4.5-11.2
							c3-3.1,6.8-4.6,11.2-4.6h5.4c0.6,0,1.1-0.2,1.5-0.6c0.4-0.4,0.6-0.9,0.6-1.5V30.2c0-2.1-0.7-3.8-2.2-5.3
							c-1.4-1.4-3.2-2.2-5.3-2.2c-2.1,0-3.8,0.7-5.3,2.2c-1.4,1.4-2.2,3.2-2.2,5.3c0,2.1,0.7,3.8,2.2,5.3c1.4,1.5,3.2,2.2,5.3,2.2
							c1.2,0,2.2,0.4,3,1.1c0.8,0.8,1.2,1.8,1.2,3c0,1.2-0.4,2.2-1.2,3C64.6,45.6,63.6,46,62.4,46z"/>
						<path class="st16" d="M89.9,6v35.8c0,1.2-0.4,2.2-1.2,3c-0.8,0.8-1.8,1.1-3,1.1c-1.2,0-2.2-0.4-3-1.1c-0.8-0.8-1.1-1.8-1.1-3
							V6c0-1.2,0.4-2.2,1.1-3c0.8-0.8,1.8-1.1,3-1.1C88.5,1.9,89.9,3.2,89.9,6z"/>
						<path class="st16" d="M119.9,25.5l-7.9,7.7c-0.9,0.9-1.9,1.3-2.9,1.3c-1.2,0-2.2-0.4-3-1.3c-0.8-0.9-1.3-1.9-1.3-3
							c0-1,0.5-2,1.4-2.9l4.5-4.4c-0.5-0.1-1.1-0.1-1.6-0.1c-2.1,0-3.8,0.7-5.3,2.2c-1.4,1.4-2.2,3.2-2.2,5.3c0,2.1,0.7,3.8,2.2,5.3
							c1.4,1.5,3.2,2.2,5.3,2.2h5.5c1.2,0,2.2,0.4,3,1.1c0.8,0.8,1.1,1.8,1.1,3c0,1.2-0.4,2.2-1.1,3c-0.8,0.8-1.8,1.2-3,1.2H109
							c-4.5,0-8.2-1.5-11.2-4.6s-4.5-6.8-4.5-11.3S94.7,22,97.8,19s6.8-4.5,11.2-4.5c4.5,0,8.3,1.6,11.4,4.8
							c0.8,0.9,1.2,1.8,1.2,2.8C121.7,23.4,121.1,24.6,119.9,25.5z"/>
						<path class="st16" d="M140.8,46c-4.5,0-8.2-1.5-11.2-4.6s-4.5-6.8-4.5-11.3s1.5-8.2,4.5-11.2s6.8-4.5,11.2-4.5
							c4.5,0,8.2,1.5,11.3,4.5s4.6,6.8,4.6,11.2v11.6c0,1.2-0.4,2.2-1.2,3c-0.8,0.8-1.8,1.1-3,1.1c-1.2,0-2.2-0.4-3-1.1
							c-0.8-0.8-1.1-1.8-1.1-3V30.2c0-2.1-0.7-3.8-2.2-5.3c-1.5-1.4-3.2-2.2-5.3-2.2c-2.1,0-3.8,0.7-5.3,2.2
							c-1.4,1.4-2.2,3.2-2.2,5.3c0,2.1,0.7,3.8,2.2,5.3c1.4,1.5,3.2,2.2,5.3,2.2c1.2,0,2.2,0.4,3,1.1c0.8,0.8,1.2,1.8,1.2,3
							c0,1.2-0.4,2.2-1.2,3C143,45.6,142,46,140.8,46z"/>
						<path class="st16" d="M195.6,27.7c0-1.4-0.5-2.5-1.5-3.5c-1-1-2.1-1.5-3.5-1.5c-1.6,0-3,0.6-4,1.9v17.1c0,1.2-0.4,2.2-1.2,3
							c-0.8,0.8-1.8,1.1-3,1.1c-1.2,0-2.2-0.4-3-1.1c-0.8-0.8-1.1-1.8-1.1-3v-14c0-1.4-0.5-2.5-1.5-3.5c-1-1-2.2-1.5-3.5-1.5
							c-1.4,0-2.6,0.5-3.6,1.4c-1,0.9-1.5,2.1-1.5,3.5v14c0,1.2-0.4,2.2-1.1,3c-0.8,0.8-1.8,1.1-3,1.1c-1.2,0-2.2-0.4-3-1.1
							c-0.8-0.8-1.2-1.8-1.2-3v-14c0-3.8,1.3-6.9,3.9-9.5s5.7-3.8,9.5-3.8c3.3,0,6.1,1.1,8.7,3.2c2.5-2.1,5.4-3.2,8.7-3.2
							c3.8,0,6.9,1.3,9.5,3.8s3.8,5.7,3.8,9.5v18.4c0,1.4,0.5,2.6,1.5,3.6c1,1,2.2,1.5,3.6,1.5h0.2c1.2,0,2.2,0.4,3,1.2
							c0.8,0.8,1.2,1.8,1.2,3c0,1.2-0.4,2.2-1.2,3c-0.8,0.8-1.8,1.1-3,1.1H209c-3.8,0-6.9-1.3-9.5-3.9s-3.9-5.7-3.9-9.5V27.7z"/>
					</g>
				</g>
			</g>
		</g>
	</g>
	<g>
		<path class="st17" d="M122.4,45.9c-4.5,0-8.2-1.5-11.2-4.6c-3-3.1-4.5-6.8-4.5-11.3s1.5-8.2,4.5-11.2c3-3,6.8-4.5,11.2-4.5
			c4.5,0,8.2,1.5,11.3,4.5c3.1,3,4.6,6.8,4.6,11.2v11.6c0,1.2-0.4,2.2-1.2,3c-0.8,0.8-1.8,1.1-3,1.1c-1.2,0-2.2-0.4-3-1.1
			c-0.8-0.8-1.1-1.8-1.1-3V30.1c0-2.1-0.7-3.8-2.2-5.3c-1.5-1.4-3.2-2.2-5.3-2.2c-2.1,0-3.8,0.7-5.3,2.2c-1.4,1.4-2.2,3.2-2.2,5.3
			c0,2.1,0.7,3.8,2.2,5.3c1.4,1.5,3.2,2.2,5.3,2.2c1.2,0,2.2,0.4,3,1.1c0.8,0.8,1.2,1.8,1.2,3c0,1.2-0.4,2.2-1.2,3
			C124.7,45.5,123.6,45.9,122.4,45.9z"/>
		<path class="st18" d="M134.1,45.9L134.1,45.9c-2.3,0-4.2-1.9-4.2-4.2V29.4c0-2.3,1.9-4.2,4.2-4.2h0c2.3,0,4.2,1.9,4.2,4.2v12.3
			C138.2,44,136.4,45.9,134.1,45.9z"/>
	</g>
	<path class="st19" d="M101.5,25.4l-7.9,7.7c-0.9,0.9-1.9,1.3-2.9,1.3c-1.2,0-2.2-0.4-3-1.3c-0.8-0.9-1.3-1.9-1.3-3
		c0-1,0.5-2,1.4-2.9l4.5-4.4c-0.5-0.1-1.1-0.1-1.6-0.1c-2.1,0-3.8,0.7-5.3,2.2c-1.4,1.4-2.2,3.2-2.2,5.3c0,2.1,0.7,3.8,2.2,5.3
		c1.4,1.5,3.2,2.2,5.3,2.2h5.5c1.2,0,2.2,0.4,3,1.1c0.8,0.8,1.1,1.8,1.1,3c0,1.2-0.4,2.2-1.1,3c-0.8,0.8-1.8,1.2-3,1.2h-5.5
		c-4.5,0-8.2-1.5-11.2-4.6c-3-3.1-4.5-6.8-4.5-11.3s1.5-8.2,4.5-11.2s6.8-4.5,11.2-4.5c4.5,0,8.3,1.6,11.4,4.8
		c0.8,0.9,1.2,1.8,1.2,2.8C103.3,23.3,102.7,24.5,101.5,25.4z"/>
	<g>
		<path class="st1" d="M43.9,45.9c-4.5,0-8.2-1.5-11.2-4.6c-3-3.1-4.5-6.8-4.5-11.3s1.5-8.2,4.5-11.2s6.8-4.5,11.2-4.5
			c4.5,0,8.2,1.5,11.2,4.5c3,3,4.5,6.8,4.5,11.2V45c0,2.9-1,5.4-3.1,7.5c-2,2-4.5,3.1-7.4,3.1h-5.3c-2.1,0-3.8,0.7-5.3,2.2
			c-1.4,1.5-2.2,3.2-2.2,5.3c0,2.1,0.7,3.8,2.2,5.3c1.4,1.4,3.2,2.2,5.3,2.2c2.1,0,3.8-0.7,5.3-2.2c1.4-1.4,2.2-3.2,2.2-5.3
			c0-1.2,0.4-2.2,1.2-3s1.8-1.2,3-1.2c1.2,0,2.2,0.4,3,1.2c0.8,0.8,1.1,1.8,1.1,3c0,4.4-1.5,8.1-4.6,11.2c-3.1,3.1-6.8,4.6-11.2,4.6
			c-4.4,0-8.1-1.5-11.2-4.6c-3.1-3.1-4.6-6.8-4.6-11.2c0-4.4,1.5-8.2,4.5-11.2c3-3.1,6.8-4.6,11.2-4.6h5.4c0.6,0,1.1-0.2,1.5-0.6
			c0.4-0.4,0.6-0.9,0.6-1.5V30.1c0-2.1-0.7-3.8-2.2-5.3c-1.4-1.4-3.2-2.2-5.3-2.2c-2.1,0-3.8,0.7-5.3,2.2c-1.4,1.4-2.2,3.2-2.2,5.3
			c0,2.1,0.7,3.8,2.2,5.3c1.4,1.5,3.2,2.2,5.3,2.2c1.2,0,2.2,0.4,3,1.1c0.8,0.8,1.2,1.8,1.2,3c0,1.2-0.4,2.2-1.2,3
			C46.1,45.5,45.1,45.9,43.9,45.9z"/>
		<g class="st21">
			<g>
				<defs>
					<polygon id="SVGID_219_" points="60.8,43.2 50,43.2 48.1,46.5 26.2,46.5 26.2,6.8 63,6.8 63,43 					"/>
				</defs>
				<clipPath id="SVGID_14_">
					<use xlink:href="#SVGID_219_"  style="overflow:visible;"/>
				</clipPath>
				<path style="clip-path:url(#SVGID_14_);fill:#3319B2;" d="M43.9,45.9c-4.5,0-8.2-1.5-11.2-4.6c-3-3.1-4.5-6.8-4.5-11.3
					s1.5-8.2,4.5-11.2s6.8-4.5,11.2-4.5c4.5,0,8.2,1.5,11.2,4.5s4.5,6.8,4.5,11.2V45c0,2.9-1,5.4-3.1,7.5c-2,2-4.5,3.1-7.4,3.1h-5.3
					c-2.1,0-3.8,0.7-5.3,2.2c-1.4,1.5-2.2,3.2-2.2,5.3c0,2.1,0.7,3.8,2.2,5.3c1.4,1.4,3.2,2.2,5.3,2.2c2.1,0,3.8-0.7,5.3-2.2
					c1.4-1.4,2.2-3.2,2.2-5.3c0-1.2,0.4-2.2,1.2-3s1.8-1.2,3-1.2c1.2,0,2.2,0.4,3,1.2c0.8,0.8,1.1,1.8,1.1,3c0,4.4-1.5,8.1-4.6,11.2
					c-3.1,3.1-6.8,4.6-11.2,4.6c-4.4,0-8.1-1.5-11.2-4.6c-3.1-3.1-4.6-6.8-4.6-11.2c0-4.4,1.5-8.2,4.5-11.2c3-3.1,6.8-4.6,11.2-4.6
					h5.4c0.6,0,1.1-0.2,1.5-0.6c0.4-0.4,0.6-0.9,0.6-1.5V30.1c0-2.1-0.7-3.8-2.2-5.3c-1.4-1.4-3.2-2.2-5.3-2.2
					c-2.1,0-3.8,0.7-5.3,2.2c-1.4,1.4-2.2,3.2-2.2,5.3c0,2.1,0.7,3.8,2.2,5.3c1.4,1.5,3.2,2.2,5.3,2.2c1.2,0,2.2,0.4,3,1.1
					c0.8,0.8,1.2,1.8,1.2,3c0,1.2-0.4,2.2-1.2,3C46.1,45.5,45.1,45.9,43.9,45.9z"/>
				<rect x="26.2" y="6.8" style="clip-path:url(#SVGID_14_);fill:none;" width="36.8" height="39.7"/>
			</g>
			<path class="st24" d="M55.5,46.5L55.5,46.5c-2.3,0-4.1-1.9-4.1-4.1v-4.1c0-2.3,1.9-4.1,4.1-4.1h0c2.3,0,4.1,1.9,4.1,4.1v4.1
				C59.6,44.7,57.8,46.5,55.5,46.5z"/>
		</g>
	</g>
	<path class="st20" d="M103.3,22.3c0.1-1.1-0.3-1.9-0.4-2.1c-0.2-0.4-0.5-0.7-0.7-0.9c-0.8-0.9-1.7-1.6-1.7-1.6
		c-0.8-0.7-1.8-1.2-1.8-1.2L88,27l0,0c0,0-0.2,0.2-0.5,0.5c-0.8,0.9-1,1.6-1,1.6l0,0c-0.1,0.2-0.1,0.3-0.1,0.5c0,0-0.3,1.5,0.8,2.9
		c0,0,0.6,0.9,1.6,1.4l0,0c0,0,0.7,0.4,1.8,0.5c0.1,0,0.1,0,0.2,0c0.1,0,0.1,0,0.2,0c0.1,0,0.2,0,0.3,0c0,0,0.1,0,0.1,0l0,0
		c0.3-0.1,0.7-0.2,1-0.4c0,0,0.1,0,0.1,0c0,0,0,0,0,0l0,0c0.1-0.1,0.2-0.1,0.3-0.2l-0.1,0.1c0,0,0.1-0.1,0.2-0.2
		c0,0,0.1-0.1,0.1-0.1c0.3-0.2,0.7-0.6,1.1-1l0,0l7.9-7.7c0.1-0.1,0.2-0.2,0.3-0.4C102.7,24.2,103.2,23.4,103.3,22.3z"/>
</g>
</svg>
