<?xml version="1.0" encoding="utf-8"?>
<!-- Generator: Adobe Illustrator 21.1.0, SVG Export Plug-In . SVG Version: 6.00 Build 0)  -->
<svg version="1.1" id="Layer_1" xmlns="http://www.w3.org/2000/svg" xmlns:xlink="http://www.w3.org/1999/xlink" x="0px" y="0px"
	 viewBox="0 0 164.1 79.6" style="enable-background:new 0 0 164.1 79.6;" xml:space="preserve">
<style type="text/css">
	.st0{clip-path:url(#SVGID_2_);}
	.st1{fill:#E82DC5;}
	.st2{clip-path:url(#SVGID_4_);}
	.st3{clip-path:url(#SVGID_6_);}
	.st4{clip-path:url(#SVGID_8_);}
	.st5{clip-path:url(#SVGID_10_);}
	.st6{fill:#F211A1;}
	.st7{fill:#5FBD7A;}
	.st8{clip-path:url(#SVGID_12_);}
	.st9{clip-path:url(#SVGID_14_);}
	.st10{clip-path:url(#SVGID_16_);}
	.st11{fill:#1100F7;}
	.st12{opacity:0.69;}
	.st13{clip-path:url(#SVGID_18_);}
	.st14{clip-path:url(#SVGID_20_);}
	.st15{clip-path:url(#SVGID_22_);}
	.st16{fill:#3AC7ED;}
	.st17{opacity:0.89;fill:#FF7900;}
	.st18{opacity:0.54;fill:#FCDE06;}
	.st19{fill:#1BB9EF;}
	.st20{opacity:0.4;fill:#841DDD;}
	.st21{opacity:0.46;}
	.st22{clip-path:url(#SVGID_24_);fill:#3319B2;}
	.st23{clip-path:url(#SVGID_24_);fill:none;}
	.st24{fill:#3319B2;}
	.st25{clip-path:url(#SVGID_26_);}
	.st26{clip-path:url(#SVGID_28_);}
	.st27{clip-path:url(#SVGID_30_);}
	.st28{clip-path:url(#SVGID_32_);}
	.st29{clip-path:url(#SVGID_34_);}
	.st30{clip-path:url(#SVGID_36_);}
	.st31{clip-path:url(#SVGID_38_);fill:#3319B2;}
	.st32{clip-path:url(#SVGID_38_);fill:none;}
	.st33{fill:#FFFFFF;}
	.st34{clip-path:url(#SVGID_40_);}
	.st35{clip-path:url(#SVGID_42_);}
	.st36{clip-path:url(#SVGID_44_);}
	.st37{clip-path:url(#SVGID_46_);}
	.st38{clip-path:url(#SVGID_48_);}
	.st39{clip-path:url(#SVGID_50_);}
	.st40{clip-path:url(#SVGID_52_);fill:#3319B2;}
	.st41{clip-path:url(#SVGID_52_);fill:none;}
	.st42{fill:#2204B2;}
	.st43{fill:none;stroke:#2204B2;stroke-miterlimit:10;}
	.st44{clip-path:url(#SVGID_54_);}
	.st45{clip-path:url(#SVGID_56_);}
	.st46{clip-path:url(#SVGID_58_);}
	.st47{clip-path:url(#SVGID_60_);}
	.st48{clip-path:url(#SVGID_62_);}
	.st49{clip-path:url(#SVGID_64_);}
	.st50{clip-path:url(#SVGID_66_);fill:#3319B2;}
	.st51{clip-path:url(#SVGID_66_);fill:none;}
	.st52{fill:none;stroke:#FFFFFF;stroke-miterlimit:10;}
	.st53{fill:#474747;}
	.st54{clip-path:url(#SVGID_68_);}
	.st55{clip-path:url(#SVGID_70_);}
	.st56{clip-path:url(#SVGID_72_);}
	.st57{clip-path:url(#SVGID_74_);}
	.st58{clip-path:url(#SVGID_76_);}
	.st59{clip-path:url(#SVGID_78_);}
	.st60{clip-path:url(#SVGID_80_);fill:#3319B2;}
	.st61{clip-path:url(#SVGID_80_);fill:none;}
	.st62{fill:#FFCE00;}
	.st63{clip-path:url(#SVGID_82_);}
	.st64{clip-path:url(#SVGID_84_);}
	.st65{clip-path:url(#SVGID_86_);}
	.st66{clip-path:url(#SVGID_88_);}
	.st67{clip-path:url(#SVGID_90_);}
	.st68{clip-path:url(#SVGID_92_);}
	.st69{clip-path:url(#SVGID_94_);fill:#3319B2;}
	.st70{clip-path:url(#SVGID_94_);fill:none;}
	.st71{clip-path:url(#SVGID_96_);}
	.st72{clip-path:url(#SVGID_98_);}
	.st73{clip-path:url(#SVGID_100_);}
	.st74{clip-path:url(#SVGID_102_);}
	.st75{clip-path:url(#SVGID_104_);}
	.st76{clip-path:url(#SVGID_106_);}
	.st77{clip-path:url(#SVGID_108_);fill:#3319B2;}
	.st78{clip-path:url(#SVGID_108_);fill:none;}
	.st79{fill:#6002B2;}
	.st80{fill:none;stroke:#6002B2;stroke-miterlimit:10;}
	.st81{opacity:0.83;}
	.st82{clip-path:url(#SVGID_110_);}
	.st83{clip-path:url(#SVGID_112_);}
	.st84{clip-path:url(#SVGID_114_);}
	.st85{clip-path:url(#SVGID_116_);}
	.st86{clip-path:url(#SVGID_118_);}
	.st87{clip-path:url(#SVGID_120_);}
	.st88{clip-path:url(#SVGID_122_);fill:#3319B2;}
	.st89{clip-path:url(#SVGID_122_);fill:none;}
	.st90{clip-path:url(#SVGID_124_);}
	.st91{clip-path:url(#SVGID_126_);}
	.st92{clip-path:url(#SVGID_128_);}
	.st93{clip-path:url(#SVGID_130_);}
	.st94{clip-path:url(#SVGID_132_);}
	.st95{clip-path:url(#SVGID_134_);}
	.st96{clip-path:url(#SVGID_136_);fill:#3319B2;}
	.st97{clip-path:url(#SVGID_136_);fill:none;}
	.st98{clip-path:url(#SVGID_138_);}
	.st99{clip-path:url(#SVGID_140_);}
	.st100{clip-path:url(#SVGID_142_);}
	.st101{clip-path:url(#SVGID_144_);}
	.st102{clip-path:url(#SVGID_146_);}
	.st103{clip-path:url(#SVGID_148_);}
	.st104{clip-path:url(#SVGID_150_);fill:#3319B2;}
	.st105{clip-path:url(#SVGID_150_);fill:none;}
	.st106{clip-path:url(#SVGID_152_);}
	.st107{clip-path:url(#SVGID_154_);}
	.st108{clip-path:url(#SVGID_156_);}
	.st109{clip-path:url(#SVGID_158_);}
	.st110{clip-path:url(#SVGID_160_);}
	.st111{clip-path:url(#SVGID_162_);}
	.st112{clip-path:url(#SVGID_164_);fill:#3319B2;}
	.st113{clip-path:url(#SVGID_164_);fill:none;}
	.st114{fill:#E9F406;}
	.st115{clip-path:url(#SVGID_166_);}
	.st116{clip-path:url(#SVGID_168_);}
	.st117{clip-path:url(#SVGID_170_);}
	.st118{clip-path:url(#SVGID_172_);}
	.st119{clip-path:url(#SVGID_174_);}
	.st120{clip-path:url(#SVGID_176_);}
	.st121{clip-path:url(#SVGID_178_);fill:#3319B2;}
	.st122{clip-path:url(#SVGID_178_);fill:none;}
	.st123{clip-path:url(#SVGID_180_);}
	.st124{clip-path:url(#SVGID_182_);}
	.st125{clip-path:url(#SVGID_184_);}
	.st126{clip-path:url(#SVGID_186_);}
	.st127{clip-path:url(#SVGID_188_);}
	.st128{clip-path:url(#SVGID_190_);}
	.st129{clip-path:url(#SVGID_192_);fill:#3319B2;}
	.st130{clip-path:url(#SVGID_192_);fill:none;}
	.st131{clip-path:url(#SVGID_194_);}
	.st132{clip-path:url(#SVGID_196_);}
	.st133{clip-path:url(#SVGID_198_);}
	.st134{clip-path:url(#SVGID_200_);}
	.st135{clip-path:url(#SVGID_202_);}
	.st136{clip-path:url(#SVGID_204_);}
	.st137{clip-path:url(#SVGID_206_);fill:#3319B2;}
	.st138{clip-path:url(#SVGID_206_);fill:none;}
	.st139{clip-path:url(#SVGID_208_);}
	.st140{clip-path:url(#SVGID_210_);}
	.st141{clip-path:url(#SVGID_212_);}
	.st142{clip-path:url(#SVGID_214_);}
	.st143{clip-path:url(#SVGID_216_);}
	.st144{clip-path:url(#SVGID_218_);}
	.st145{clip-path:url(#SVGID_220_);fill:#3319B2;}
	.st146{clip-path:url(#SVGID_220_);fill:none;}
	.st147{clip-path:url(#SVGID_222_);}
	.st148{clip-path:url(#SVGID_224_);}
	.st149{clip-path:url(#SVGID_226_);}
	.st150{clip-path:url(#SVGID_228_);}
	.st151{clip-path:url(#SVGID_230_);}
	.st152{clip-path:url(#SVGID_232_);}
	.st153{clip-path:url(#SVGID_234_);fill:#3319B2;}
	.st154{clip-path:url(#SVGID_234_);fill:none;}
</style>
<g>
	<path class="st53" d="M52.8,60.5c0.8,0.2,1.4,0.5,1.8,1.1s0.7,1.2,0.7,1.9c0,1.1-0.4,1.9-1.2,2.5c-0.8,0.6-1.7,0.9-2.8,0.9H48V55.2
		h3.2c1.1,0,2,0.2,2.6,0.7s1,1.2,1,2.1c0,0.6-0.2,1-0.6,1.5C53.9,60,53.4,60.3,52.8,60.5L52.8,60.5z M49.4,59.9H51
		c1.7,0,2.5-0.6,2.5-1.8c0-0.5-0.2-1-0.6-1.2c-0.4-0.3-1-0.4-1.8-0.4h-1.7V59.9z M49.4,65.7h1.5c0.9,0,1.6-0.2,2.1-0.6
		c0.5-0.4,0.8-1,0.8-1.7c0-0.8-0.3-1.3-0.8-1.8s-1.3-0.6-2.3-0.6h-1.4V65.7z"/>
	<path class="st53" d="M65.2,62.6h-5.9c0,1,0.3,1.8,0.9,2.4c0.6,0.6,1.3,1,2.1,1c0.8,0,1.6-0.1,2.4-0.4l0.2,1
		c-0.8,0.3-1.7,0.5-2.7,0.5c-1.3,0-2.3-0.4-3.1-1.2s-1.2-1.9-1.2-3.3c0-1.4,0.4-2.5,1.1-3.3c0.7-0.8,1.6-1.2,2.7-1.2
		c1,0,1.8,0.4,2.5,1.1s1,1.8,1,3V62.6z M63.8,61.6c0-0.7-0.2-1.2-0.6-1.7s-0.9-0.7-1.4-0.7c-0.7,0-1.2,0.2-1.7,0.7
		c-0.4,0.4-0.7,1-0.7,1.7H63.8z"/>
	<path class="st53" d="M74.2,59.4c0.3-0.4,0.7-0.7,1.2-1c0.5-0.2,1-0.4,1.5-0.4c1,0,1.8,0.4,2.3,1.2c0.6,0.8,0.9,1.9,0.9,3.2
		c0,1.3-0.3,2.4-0.9,3.3c-0.6,0.9-1.4,1.3-2.4,1.3c-0.5,0-1-0.1-1.5-0.4c-0.5-0.3-0.8-0.6-1.1-1.1v4.7h-1.3V58.3h1.3V59.4z
		 M74.2,60.7v3.6c0.2,0.5,0.6,0.9,1,1.2S76,66,76.4,66c0.7,0,1.3-0.3,1.7-1c0.4-0.7,0.6-1.5,0.6-2.4c0-1-0.2-1.8-0.6-2.4
		s-0.9-0.9-1.6-0.9C75.6,59.2,74.8,59.7,74.2,60.7z"/>
	<path class="st53" d="M89.9,58.5l-0.5,1.2c-0.6-0.2-1.1-0.4-1.5-0.4c-0.4,0-0.8,0.1-1.1,0.3s-0.7,0.5-1,0.9
		c-0.3,0.4-0.5,0.6-0.5,0.7v5.6H84v-8.6h1.3V60c0.7-1.3,1.6-2,2.7-2C88.6,58.1,89.3,58.2,89.9,58.5z"/>
	<path class="st53" d="M96.6,58.1c1.2,0,2.1,0.4,2.8,1.2s1.1,1.9,1.1,3.3c0,1.4-0.4,2.5-1.1,3.3s-1.6,1.3-2.8,1.3
		c-1.2,0-2.1-0.4-2.8-1.2c-0.7-0.8-1.1-1.9-1.1-3.3c0-1.4,0.4-2.5,1.1-3.3S95.4,58.1,96.6,58.1z M96.6,66c0.8,0,1.4-0.3,1.9-1
		s0.7-1.5,0.7-2.4c0-1-0.2-1.8-0.7-2.5s-1.1-1-1.9-1c-0.8,0-1.4,0.3-1.9,1S94,61.6,94,62.6c0,1,0.2,1.8,0.7,2.4
		C95.2,65.7,95.8,66,96.6,66z"/>
	<path class="st53" d="M110.1,66.9h-1.3v-1.3c-0.9,1-1.9,1.5-2.9,1.5c-1.6,0-2.4-1-2.4-2.9v-5.9h1.3v5.5c0,0.7,0.1,1.3,0.3,1.6
		s0.6,0.5,1.2,0.5c0.8,0,1.6-0.5,2.5-1.5v-6.3h1.3V66.9z"/>
	<path class="st53" d="M120.3,66.9H119v-1.2c-0.3,0.4-0.6,0.8-1.1,1.1c-0.5,0.3-1,0.4-1.6,0.4c-1,0-1.8-0.4-2.3-1.3s-0.9-2-0.9-3.4
		c0-1.3,0.3-2.3,0.9-3.2c0.6-0.8,1.4-1.2,2.4-1.2c1.1,0,2,0.4,2.6,1.3v-4.2h1.3V66.9z M119,64.3v-3.6c-0.6-1-1.4-1.5-2.2-1.5
		c-0.7,0-1.3,0.3-1.7,1s-0.6,1.4-0.6,2.4c0,1,0.2,1.8,0.6,2.5c0.4,0.7,0.9,1,1.6,1c0.3,0,0.7-0.1,1-0.3c0.3-0.2,0.6-0.4,0.9-0.8
		C118.9,64.6,119,64.4,119,64.3z"/>
</g>
<g>
	<path class="st7" d="M45.3,5.9v35.8c0,1.2-0.4,2.2-1.2,3c-0.8,0.8-1.8,1.1-3,1.1c-1.2,0-2.2-0.4-3-1.1c-0.8-0.8-1.1-1.8-1.1-3V5.9
		c0-1.2,0.4-2.2,1.1-3c0.8-0.8,1.8-1.1,3-1.1C43.9,1.7,45.3,3.1,45.3,5.9z"/>
	<g>
		<g>
			<defs>
				<path id="SVGID_207_" d="M137.4,17.5c0,0,4.7,3.7,4.7,9.2s0,21,0,21h-29.5V9.9h25.6L137.4,17.5z"/>
			</defs>
			<clipPath id="SVGID_2_">
				<use xlink:href="#SVGID_207_"  style="overflow:visible;"/>
			</clipPath>
			<g class="st0">
				<defs>
					<rect id="SVGID_209_" x="114.6" y="13.8" width="31.1" height="35.4"/>
				</defs>
				<clipPath id="SVGID_4_">
					<use xlink:href="#SVGID_209_"  style="overflow:visible;"/>
				</clipPath>
				<g class="st2">
					<defs>
						<path id="SVGID_211_" d="M137.4,17.5c0,0,3.6,2.3,4.7,7.1s3.6,21.2,3.6,21.2L97.1,98.6L-21,88.3l13.2-75.7l49-42.4l86.2,35.5
							l9.9-0.4L137.4,17.5z"/>
					</defs>
					<clipPath id="SVGID_6_">
						<use xlink:href="#SVGID_211_"  style="overflow:visible;"/>
					</clipPath>
					<g class="st3">
						<path class="st6" d="M17.8,46c-4.5,0-8.2-1.5-11.2-4.6S2,34.6,2,30.1s1.5-8.2,4.5-11.2s6.8-4.5,11.2-4.5
							c4.5,0,8.2,1.5,11.2,4.5s4.5,6.8,4.5,11.2V45c0,2.9-1,5.4-3.1,7.5c-2,2-4.5,3.1-7.4,3.1h-5.3c-2.1,0-3.8,0.7-5.3,2.2
							c-1.4,1.5-2.2,3.2-2.2,5.3c0,2.1,0.7,3.8,2.2,5.3c1.4,1.4,3.2,2.2,5.3,2.2c2.1,0,3.8-0.7,5.3-2.2c1.4-1.4,2.2-3.2,2.2-5.3
							c0-1.2,0.4-2.2,1.2-3c0.8-0.8,1.8-1.2,3-1.2c1.2,0,2.2,0.4,3,1.2c0.8,0.8,1.1,1.8,1.1,3c0,4.4-1.5,8.1-4.6,11.2
							c-3.1,3.1-6.8,4.6-11.2,4.6c-4.4,0-8.1-1.5-11.2-4.6C3.5,71.2,2,67.4,2,63c0-4.4,1.5-8.2,4.5-11.2c3-3.1,6.8-4.6,11.2-4.6h5.4
							c0.6,0,1.1-0.2,1.5-0.6c0.4-0.4,0.6-0.9,0.6-1.5V30.1c0-2.1-0.7-3.8-2.2-5.3c-1.4-1.4-3.2-2.2-5.3-2.2c-2.1,0-3.8,0.7-5.3,2.2
							c-1.4,1.4-2.2,3.2-2.2,5.3c0,2.1,0.7,3.8,2.2,5.3c1.4,1.5,3.2,2.2,5.3,2.2c1.2,0,2.2,0.4,3,1.1c0.8,0.8,1.2,1.8,1.2,3
							c0,1.2-0.4,2.2-1.2,3C20,45.6,19,46,17.8,46z"/>
						<path class="st6" d="M45.3,5.9v35.8c0,1.2-0.4,2.2-1.2,3c-0.8,0.8-1.8,1.1-3,1.1c-1.2,0-2.2-0.4-3-1.1c-0.8-0.8-1.1-1.8-1.1-3
							V5.9c0-1.2,0.4-2.2,1.1-3c0.8-0.8,1.8-1.1,3-1.1C43.9,1.8,45.3,3.2,45.3,5.9z"/>
						<path class="st6" d="M75.3,25.4l-7.9,7.7c-0.9,0.9-1.9,1.3-2.9,1.3c-1.2,0-2.2-0.4-3-1.3c-0.8-0.9-1.3-1.9-1.3-3
							c0-1,0.5-2,1.4-2.9l4.5-4.4c-0.5-0.1-1.1-0.1-1.6-0.1c-2.1,0-3.8,0.7-5.3,2.2c-1.4,1.4-2.2,3.2-2.2,5.3c0,2.1,0.7,3.8,2.2,5.3
							c1.4,1.5,3.2,2.2,5.3,2.2h5.5c1.2,0,2.2,0.4,3,1.1c0.8,0.8,1.1,1.8,1.1,3c0,1.2-0.4,2.2-1.1,3c-0.8,0.8-1.8,1.2-3,1.2h-5.5
							c-4.5,0-8.2-1.5-11.2-4.6c-3-3.1-4.5-6.8-4.5-11.3s1.5-8.2,4.5-11.2c3-3,6.8-4.5,11.2-4.5c4.5,0,8.3,1.6,11.4,4.8
							c0.8,0.9,1.2,1.8,1.2,2.8C77.1,23.4,76.5,24.5,75.3,25.4z"/>
						<path class="st6" d="M96.2,46c-4.5,0-8.2-1.5-11.2-4.6c-3-3.1-4.5-6.8-4.5-11.3S82,21.9,85,18.9c3-3,6.8-4.5,11.2-4.5
							c4.5,0,8.2,1.5,11.3,4.5s4.6,6.8,4.6,11.2v11.6c0,1.2-0.4,2.2-1.2,3c-0.8,0.8-1.8,1.1-3,1.1c-1.2,0-2.2-0.4-3-1.1
							c-0.8-0.8-1.1-1.8-1.1-3V30.1c0-2.1-0.7-3.8-2.2-5.3c-1.5-1.4-3.2-2.2-5.3-2.2c-2.1,0-3.8,0.7-5.3,2.2
							c-1.4,1.4-2.2,3.2-2.2,5.3c0,2.1,0.7,3.8,2.2,5.3c1.4,1.5,3.2,2.2,5.3,2.2c1.2,0,2.2,0.4,3,1.1c0.8,0.8,1.2,1.8,1.2,3
							c0,1.2-0.4,2.2-1.2,3C98.5,45.6,97.5,46,96.2,46z"/>
						<path class="st6" d="M151,27.7c0-1.4-0.5-2.5-1.5-3.5c-1-1-2.1-1.5-3.5-1.5c-1.6,0-3,0.6-4,1.9v17.1c0,1.2-0.4,2.2-1.2,3
							c-0.8,0.8-1.8,1.1-3,1.1c-1.2,0-2.2-0.4-3-1.1c-0.8-0.8-1.1-1.8-1.1-3v-14c0-1.4-0.5-2.5-1.5-3.5c-1-1-2.2-1.5-3.5-1.5
							c-1.4,0-2.6,0.5-3.6,1.4c-1,0.9-1.5,2.1-1.5,3.5v14c0,1.2-0.4,2.2-1.1,3c-0.8,0.8-1.8,1.1-3,1.1c-1.2,0-2.2-0.4-3-1.1
							c-0.8-0.8-1.2-1.8-1.2-3v-14c0-3.8,1.3-6.9,3.9-9.5s5.7-3.8,9.5-3.8c3.3,0,6.1,1.1,8.7,3.2c2.5-2.1,5.4-3.2,8.7-3.2
							c3.8,0,6.9,1.3,9.5,3.8c2.6,2.6,3.8,5.7,3.8,9.5v18.4c0,1.4,0.5,2.6,1.5,3.6c1,1,2.2,1.5,3.6,1.5h0.2c1.2,0,2.2,0.4,3,1.2
							c0.8,0.8,1.2,1.8,1.2,3c0,1.2-0.4,2.2-1.2,3c-0.8,0.8-1.8,1.1-3,1.1h-0.2c-3.8,0-6.9-1.3-9.5-3.9s-3.9-5.7-3.9-9.5V27.7z"/>
					</g>
				</g>
			</g>
		</g>
		<path class="st11" d="M142.1,26.5c-0.3-5.2-4.2-8.6-4.2-8.6c-3.4,3.2-4,7.2-4.1,8.6h0v15.2c0,2.3,1.9,4.2,4.2,4.2h0
			c2.3,0,4.2-1.9,4.2-4.2L142.1,26.5L142.1,26.5z"/>
		<g class="st12">
			<defs>
				<path id="SVGID_213_" class="st12" d="M154.9,16.9c0,0,5.6,3.3,5.6,12.5l2,13.3l-6.4,5.3l-22.9-0.8l0.5-29.8l16.4-5.5l3.2,1.9
					L154.9,16.9z"/>
			</defs>
			<clipPath id="SVGID_8_">
				<use xlink:href="#SVGID_213_"  style="overflow:visible;"/>
			</clipPath>
			<g class="st4">
				<defs>
					<polygon id="SVGID_215_" points="129.9,9.9 132.8,52.6 166.4,46.9 162.2,14.6 					"/>
				</defs>
				<clipPath id="SVGID_10_">
					<use xlink:href="#SVGID_215_"  style="overflow:visible;"/>
				</clipPath>
				<g class="st5">
					<defs>
						<path id="SVGID_217_" d="M155.8,17.6c0,0,3.6,2.3,4.7,7.1s3.6,21.2,3.6,21.2l-48.7,52.7L-2.7,88.4l13.2-75.7l49-42.4
							l86.2,35.5l9.9-0.4L155.8,17.6z"/>
					</defs>
					<clipPath id="SVGID_12_">
						<use xlink:href="#SVGID_217_"  style="overflow:visible;"/>
					</clipPath>
					<g class="st8">
						<path class="st16" d="M36.2,46c-4.5,0-8.2-1.5-11.2-4.6s-4.5-6.8-4.5-11.3S21.9,22,24.9,19s6.8-4.5,11.2-4.5
							c4.5,0,8.2,1.5,11.2,4.5c3,3,4.5,6.8,4.5,11.2v14.9c0,2.9-1,5.4-3.1,7.5c-2,2-4.5,3.1-7.4,3.1h-5.3c-2.1,0-3.8,0.7-5.3,2.2
							c-1.4,1.5-2.2,3.2-2.2,5.3c0,2.1,0.7,3.8,2.2,5.3c1.4,1.4,3.2,2.2,5.3,2.2c2.1,0,3.8-0.7,5.3-2.2c1.4-1.4,2.2-3.2,2.2-5.3
							c0-1.2,0.4-2.2,1.2-3c0.8-0.8,1.8-1.2,3-1.2c1.2,0,2.2,0.4,3,1.2c0.8,0.8,1.1,1.8,1.1,3c0,4.4-1.5,8.1-4.6,11.2
							c-3.1,3.1-6.8,4.6-11.2,4.6c-4.4,0-8.1-1.5-11.2-4.6c-3.1-3.1-4.6-6.8-4.6-11.2c0-4.4,1.5-8.2,4.5-11.2
							c3-3.1,6.8-4.6,11.2-4.6h5.4c0.6,0,1.1-0.2,1.5-0.6c0.4-0.4,0.6-0.9,0.6-1.5V30.2c0-2.1-0.7-3.8-2.2-5.3
							c-1.4-1.4-3.2-2.2-5.3-2.2c-2.1,0-3.8,0.7-5.3,2.2c-1.4,1.4-2.2,3.2-2.2,5.3c0,2.1,0.7,3.8,2.2,5.3c1.4,1.5,3.2,2.2,5.3,2.2
							c1.2,0,2.2,0.4,3,1.1c0.8,0.8,1.2,1.8,1.2,3c0,1.2-0.4,2.2-1.2,3C38.4,45.6,37.4,46,36.2,46z"/>
						<path class="st16" d="M63.7,6v35.8c0,1.2-0.4,2.2-1.2,3c-0.8,0.8-1.8,1.1-3,1.1c-1.2,0-2.2-0.4-3-1.1c-0.8-0.8-1.1-1.8-1.1-3
							V6c0-1.2,0.4-2.2,1.1-3c0.8-0.8,1.8-1.1,3-1.1C62.3,1.9,63.7,3.2,63.7,6z"/>
						<path class="st16" d="M93.7,25.5l-7.9,7.7c-0.9,0.9-1.9,1.3-2.9,1.3c-1.2,0-2.2-0.4-3-1.3c-0.8-0.9-1.3-1.9-1.3-3
							c0-1,0.5-2,1.4-2.9l4.5-4.4c-0.5-0.1-1.1-0.1-1.6-0.1c-2.1,0-3.8,0.7-5.3,2.2c-1.4,1.4-2.2,3.2-2.2,5.3c0,2.1,0.7,3.8,2.2,5.3
							c1.4,1.5,3.2,2.2,5.3,2.2h5.5c1.2,0,2.2,0.4,3,1.1c0.8,0.8,1.1,1.8,1.1,3c0,1.2-0.4,2.2-1.1,3c-0.8,0.8-1.8,1.2-3,1.2h-5.5
							c-4.5,0-8.2-1.5-11.2-4.6c-3-3.1-4.5-6.8-4.5-11.3S68.5,22,71.6,19c3-3,6.8-4.5,11.2-4.5c4.5,0,8.3,1.6,11.4,4.8
							c0.8,0.9,1.2,1.8,1.2,2.8C95.5,23.4,94.9,24.6,93.7,25.5z"/>
						<path class="st16" d="M114.6,46c-4.5,0-8.2-1.5-11.2-4.6c-3-3.1-4.5-6.8-4.5-11.3s1.5-8.2,4.5-11.2c3-3,6.8-4.5,11.2-4.5
							c4.5,0,8.2,1.5,11.3,4.5s4.6,6.8,4.6,11.2v11.6c0,1.2-0.4,2.2-1.2,3c-0.8,0.8-1.8,1.1-3,1.1c-1.2,0-2.2-0.4-3-1.1
							c-0.8-0.8-1.1-1.8-1.1-3V30.2c0-2.1-0.7-3.8-2.2-5.3c-1.5-1.4-3.2-2.2-5.3-2.2c-2.1,0-3.8,0.7-5.3,2.2
							c-1.4,1.4-2.2,3.2-2.2,5.3c0,2.1,0.7,3.8,2.2,5.3c1.4,1.5,3.2,2.2,5.3,2.2c1.2,0,2.2,0.4,3,1.1c0.8,0.8,1.2,1.8,1.2,3
							c0,1.2-0.4,2.2-1.2,3C116.8,45.6,115.8,46,114.6,46z"/>
						<path class="st16" d="M169.4,27.7c0-1.4-0.5-2.5-1.5-3.5c-1-1-2.1-1.5-3.5-1.5c-1.6,0-3,0.6-4,1.9v17.1c0,1.2-0.4,2.2-1.2,3
							c-0.8,0.8-1.8,1.1-3,1.1c-1.2,0-2.2-0.4-3-1.1c-0.8-0.8-1.1-1.8-1.1-3v-14c0-1.4-0.5-2.5-1.5-3.5c-1-1-2.2-1.5-3.5-1.5
							c-1.4,0-2.6,0.5-3.6,1.4c-1,0.9-1.5,2.1-1.5,3.5v14c0,1.2-0.4,2.2-1.1,3c-0.8,0.8-1.8,1.1-3,1.1c-1.2,0-2.2-0.4-3-1.1
							c-0.8-0.8-1.2-1.8-1.2-3v-14c0-3.8,1.3-6.9,3.9-9.5s5.7-3.8,9.5-3.8c3.3,0,6.1,1.1,8.7,3.2c2.5-2.1,5.4-3.2,8.7-3.2
							c3.8,0,6.9,1.3,9.5,3.8c2.6,2.6,3.8,5.7,3.8,9.5v18.4c0,1.4,0.5,2.6,1.5,3.6c1,1,2.2,1.5,3.6,1.5h0.2c1.2,0,2.2,0.4,3,1.2
							c0.8,0.8,1.2,1.8,1.2,3c0,1.2-0.4,2.2-1.2,3c-0.8,0.8-1.8,1.1-3,1.1h-0.2c-3.8,0-6.9-1.3-9.5-3.9s-3.9-5.7-3.9-9.5V27.7z"/>
					</g>
				</g>
			</g>
		</g>
	</g>
	<g>
		<path class="st17" d="M96.2,45.9c-4.5,0-8.2-1.5-11.2-4.6c-3-3.1-4.5-6.8-4.5-11.3s1.5-8.2,4.5-11.2c3-3,6.8-4.5,11.2-4.5
			c4.5,0,8.2,1.5,11.3,4.5s4.6,6.8,4.6,11.2v11.6c0,1.2-0.4,2.2-1.2,3c-0.8,0.8-1.8,1.1-3,1.1c-1.2,0-2.2-0.4-3-1.1
			c-0.8-0.8-1.1-1.8-1.1-3V30.1c0-2.1-0.7-3.8-2.2-5.3c-1.5-1.4-3.2-2.2-5.3-2.2c-2.1,0-3.8,0.7-5.3,2.2c-1.4,1.4-2.2,3.2-2.2,5.3
			c0,2.1,0.7,3.8,2.2,5.3c1.4,1.5,3.2,2.2,5.3,2.2c1.2,0,2.2,0.4,3,1.1c0.8,0.8,1.2,1.8,1.2,3c0,1.2-0.4,2.2-1.2,3
			C98.5,45.5,97.4,45.9,96.2,45.9z"/>
		<path class="st18" d="M107.9,45.9L107.9,45.9c-2.3,0-4.2-1.9-4.2-4.2V29.4c0-2.3,1.9-4.2,4.2-4.2h0c2.3,0,4.2,1.9,4.2,4.2v12.3
			C112,44,110.2,45.9,107.9,45.9z"/>
	</g>
	<path class="st19" d="M75.3,25.4l-7.9,7.7c-0.9,0.9-1.9,1.3-2.9,1.3c-1.2,0-2.2-0.4-3-1.3c-0.8-0.9-1.3-1.9-1.3-3
		c0-1,0.5-2,1.4-2.9l4.5-4.4c-0.5-0.1-1.1-0.1-1.6-0.1c-2.1,0-3.8,0.7-5.3,2.2C57.7,26.3,57,28,57,30.1c0,2.1,0.7,3.8,2.2,5.3
		c1.4,1.5,3.2,2.2,5.3,2.2h5.5c1.2,0,2.2,0.4,3,1.1c0.8,0.8,1.1,1.8,1.1,3c0,1.2-0.4,2.2-1.1,3c-0.8,0.8-1.8,1.2-3,1.2h-5.5
		c-4.5,0-8.2-1.5-11.2-4.6c-3-3.1-4.5-6.8-4.5-11.3s1.5-8.2,4.5-11.2s6.8-4.5,11.2-4.5c4.5,0,8.3,1.6,11.4,4.8
		c0.8,0.9,1.2,1.8,1.2,2.8C77.1,23.3,76.5,24.5,75.3,25.4z"/>
	<g>
		<path class="st1" d="M17.7,45.9c-4.5,0-8.2-1.5-11.2-4.6c-3-3.1-4.5-6.8-4.5-11.3s1.5-8.2,4.5-11.2s6.8-4.5,11.2-4.5
			c4.5,0,8.2,1.5,11.2,4.5s4.5,6.8,4.5,11.2V45c0,2.9-1,5.4-3.1,7.5c-2,2-4.5,3.1-7.4,3.1h-5.3c-2.1,0-3.8,0.7-5.3,2.2
			c-1.4,1.5-2.2,3.2-2.2,5.3c0,2.1,0.7,3.8,2.2,5.3c1.4,1.4,3.2,2.2,5.3,2.2c2.1,0,3.8-0.7,5.3-2.2c1.4-1.4,2.2-3.2,2.2-5.3
			c0-1.2,0.4-2.2,1.2-3s1.8-1.2,3-1.2c1.2,0,2.2,0.4,3,1.2c0.8,0.8,1.1,1.8,1.1,3c0,4.4-1.5,8.1-4.6,11.2c-3.1,3.1-6.8,4.6-11.2,4.6
			c-4.4,0-8.1-1.5-11.2-4.6C3.4,71.1,1.9,67.4,1.9,63c0-4.4,1.5-8.2,4.5-11.2c3-3.1,6.8-4.6,11.2-4.6H23c0.6,0,1.1-0.2,1.5-0.6
			c0.4-0.4,0.6-0.9,0.6-1.5V30.1c0-2.1-0.7-3.8-2.2-5.3c-1.4-1.4-3.2-2.2-5.3-2.2c-2.1,0-3.8,0.7-5.3,2.2c-1.4,1.4-2.2,3.2-2.2,5.3
			c0,2.1,0.7,3.8,2.2,5.3c1.4,1.5,3.2,2.2,5.3,2.2c1.2,0,2.2,0.4,3,1.1c0.8,0.8,1.2,1.8,1.2,3c0,1.2-0.4,2.2-1.2,3
			C19.9,45.5,18.9,45.9,17.7,45.9z"/>
		<g class="st21">
			<g>
				<defs>
					<polygon id="SVGID_219_" points="34.6,43.2 23.8,43.2 21.9,46.5 0,46.5 0,6.8 36.8,6.8 36.8,43 					"/>
				</defs>
				<clipPath id="SVGID_14_">
					<use xlink:href="#SVGID_219_"  style="overflow:visible;"/>
				</clipPath>
				<path style="clip-path:url(#SVGID_14_);fill:#3319B2;" d="M17.7,45.9c-4.5,0-8.2-1.5-11.2-4.6c-3-3.1-4.5-6.8-4.5-11.3
					s1.5-8.2,4.5-11.2s6.8-4.5,11.2-4.5c4.5,0,8.2,1.5,11.2,4.5s4.5,6.8,4.5,11.2V45c0,2.9-1,5.4-3.1,7.5c-2,2-4.5,3.1-7.4,3.1h-5.3
					c-2.1,0-3.8,0.7-5.3,2.2c-1.4,1.5-2.2,3.2-2.2,5.3c0,2.1,0.7,3.8,2.2,5.3c1.4,1.4,3.2,2.2,5.3,2.2c2.1,0,3.8-0.7,5.3-2.2
					c1.4-1.4,2.2-3.2,2.2-5.3c0-1.2,0.4-2.2,1.2-3s1.8-1.2,3-1.2c1.2,0,2.2,0.4,3,1.2c0.8,0.8,1.1,1.8,1.1,3c0,4.4-1.5,8.1-4.6,11.2
					c-3.1,3.1-6.8,4.6-11.2,4.6c-4.4,0-8.1-1.5-11.2-4.6C3.4,71.1,1.9,67.4,1.9,63c0-4.4,1.5-8.2,4.5-11.2c3-3.1,6.8-4.6,11.2-4.6
					H23c0.6,0,1.1-0.2,1.5-0.6c0.4-0.4,0.6-0.9,0.6-1.5V30.1c0-2.1-0.7-3.8-2.2-5.3c-1.4-1.4-3.2-2.2-5.3-2.2
					c-2.1,0-3.8,0.7-5.3,2.2c-1.4,1.4-2.2,3.2-2.2,5.3c0,2.1,0.7,3.8,2.2,5.3c1.4,1.5,3.2,2.2,5.3,2.2c1.2,0,2.2,0.4,3,1.1
					c0.8,0.8,1.2,1.8,1.2,3c0,1.2-0.4,2.2-1.2,3C19.9,45.5,18.9,45.9,17.7,45.9z"/>
				<rect y="6.8" style="clip-path:url(#SVGID_14_);fill:none;" width="36.8" height="39.7"/>
			</g>
			<path class="st24" d="M29.3,46.5L29.3,46.5c-2.3,0-4.1-1.9-4.1-4.1v-4.1c0-2.3,1.9-4.1,4.1-4.1h0c2.3,0,4.1,1.9,4.1,4.1v4.1
				C33.4,44.7,31.6,46.5,29.3,46.5z"/>
		</g>
	</g>
	<path class="st20" d="M77.1,22.3c0.1-1.1-0.3-1.9-0.4-2.1c-0.2-0.4-0.5-0.7-0.7-0.9c-0.8-0.9-1.7-1.6-1.7-1.6
		c-0.8-0.7-1.8-1.2-1.8-1.2L61.8,27l0,0c0,0-0.2,0.2-0.5,0.5c-0.8,0.9-1,1.6-1,1.6l0,0c-0.1,0.2-0.1,0.3-0.1,0.5
		c0,0-0.3,1.5,0.8,2.9c0,0,0.6,0.9,1.6,1.4l0,0c0,0,0.7,0.4,1.8,0.5c0.1,0,0.1,0,0.2,0c0.1,0,0.1,0,0.2,0c0.1,0,0.2,0,0.3,0
		c0,0,0.1,0,0.1,0l0,0c0.3-0.1,0.7-0.2,1-0.4c0,0,0.1,0,0.1,0c0,0,0,0,0,0l0,0c0.1-0.1,0.2-0.1,0.3-0.2l-0.1,0.1
		c0,0,0.1-0.1,0.2-0.2c0,0,0.1-0.1,0.1-0.1c0.3-0.2,0.7-0.6,1.1-1l0,0l7.9-7.7c0.1-0.1,0.2-0.2,0.3-0.4C76.5,24.2,77,23.4,77.1,22.3
		z"/>
</g>
<g>
	<g>
		<g>
			<defs>
				<path id="SVGID_221_" d="M133.3,124.4c0,0,4.7,3.7,4.7,9.2c0,5.5,0,21,0,21h-29.5v-37.8h25.6L133.3,124.4z"/>
			</defs>
			<clipPath id="SVGID_16_">
				<use xlink:href="#SVGID_221_"  style="overflow:visible;"/>
			</clipPath>
			<g class="st10">
				<defs>
					<rect id="SVGID_223_" x="110.5" y="120.7" width="31.1" height="35.4"/>
				</defs>
				<clipPath id="SVGID_18_">
					<use xlink:href="#SVGID_223_"  style="overflow:visible;"/>
				</clipPath>
				<g class="st13">
					<defs>
						<path id="SVGID_225_" d="M133.3,124.4c0,0,3.6,2.3,4.7,7.1s3.6,21.2,3.6,21.2l-48.7,52.7l-118.1-10.2l13.2-75.7l49-42.4
							l86.2,35.5l9.9-0.4L133.3,124.4z"/>
					</defs>
					<clipPath id="SVGID_20_">
						<use xlink:href="#SVGID_225_"  style="overflow:visible;"/>
					</clipPath>
				</g>
			</g>
		</g>
		<g class="st12">
			<defs>
				<path id="SVGID_227_" class="st12" d="M150.7,123.8c0,0,5.6,3.3,5.6,12.5l2,13.3l-6.4,5.3l-22.9-0.8l0.5-29.8l16.4-5.5l3.2,1.9
					L150.7,123.8z"/>
			</defs>
			<clipPath id="SVGID_22_">
				<use xlink:href="#SVGID_227_"  style="overflow:visible;"/>
			</clipPath>
			<g class="st15">
				<defs>
					<polygon id="SVGID_229_" points="125.7,116.8 128.7,159.5 162.3,153.8 158.1,121.5 					"/>
				</defs>
				<clipPath id="SVGID_24_">
					<use xlink:href="#SVGID_229_"  style="overflow:visible;"/>
				</clipPath>
				<g style="clip-path:url(#SVGID_24_);">
					<defs>
						<path id="SVGID_231_" d="M151.7,124.5c0,0,3.6,2.3,4.7,7.1c1.1,4.8,3.6,21.2,3.6,21.2l-48.7,52.7L-6.8,195.3l13.2-75.7
							l49-42.4l86.2,35.5l9.9-0.4L151.7,124.5z"/>
					</defs>
					<clipPath id="SVGID_26_">
						<use xlink:href="#SVGID_231_"  style="overflow:visible;"/>
					</clipPath>
				</g>
			</g>
		</g>
	</g>
</g>
</svg>
