<svg width="25" height="19" viewBox="0 0 25 19" fill="none" xmlns="http://www.w3.org/2000/svg">
<path d="M15.0154 6.24998C14.8154 6.04998 14.5154 6.04998 14.3154 6.24998C14.1154 6.44998 14.1154 6.74998 14.3154 6.94998C14.9154 7.54998 15.2154 8.24997 15.2154 9.14997C15.2154 10.85 13.8154 12.25 12.1154 12.25C11.3154 12.25 10.5154 11.95 9.91543 11.35C9.71543 11.15 9.41543 11.15 9.21543 11.35C9.01543 11.55 9.01543 11.85 9.21543 12.05C10.0154 12.85 11.0154 13.25 12.1154 13.25C14.3154 13.25 16.2154 11.45 16.2154 9.14997C16.2154 8.04997 15.8154 7.04998 15.0154 6.24998Z" fill="black"/>
<path d="M12.8156 5.14999C12.6156 5.04999 12.4156 5.04999 12.1156 5.04999C9.91563 5.04999 8.01562 6.84999 8.01562 9.14999C8.01562 9.34999 8.01563 9.64999 8.11563 9.84999C8.11563 10.05 8.41563 10.25 8.61563 10.25H8.71563C9.01563 10.25 9.21563 9.94999 9.11563 9.64999C9.11563 9.44999 9.01562 9.34999 9.01562 9.14999C9.01562 7.44999 10.4156 6.04999 12.1156 6.04999C12.3156 6.04999 12.5156 6.04999 12.6156 6.14999C12.9156 6.24999 13.1156 6.04999 13.2156 5.74999C13.3156 5.44999 13.1156 5.14999 12.8156 5.14999Z" fill="black"/>
<path d="M24.2156 8.75C24.1156 8.65 21.3156 5.45 17.5156 3.45C17.3156 3.35 16.9156 3.45 16.8156 3.65C16.7156 3.85 16.8156 4.25 17.0156 4.35C19.9156 5.85 22.3156 8.25 23.1156 9.05C21.9156 10.35 17.1156 15.15 12.1156 15.15C10.4156 15.15 8.7156 14.75 7.0156 13.95C6.7156 13.85 6.4156 13.95 6.3156 14.15C6.2156 14.45 6.3156 14.75 6.5156 14.85C8.3156 15.75 10.2156 16.15 12.1156 16.15C18.4156 16.15 24.0156 9.65 24.2156 9.35C24.4156 9.25 24.4156 8.95 24.2156 8.75Z" fill="black"/>
<path d="M15.5155 2.55001C14.3155 2.15001 13.2155 1.95001 12.2155 1.95001C5.91547 1.95001 0.31547 8.45001 0.11547 8.75001C0.0154701 8.95001 -0.0845299 9.15001 0.11547 9.35001C0.21547 9.45001 1.91547 11.85 4.81547 13.75C4.91547 13.85 5.01547 13.85 5.11547 13.85C5.31547 13.85 5.41547 13.75 5.51547 13.65C5.71547 13.45 5.61547 13.15 5.41547 12.95C3.31547 11.55 1.81547 9.85001 1.21547 9.15001C2.41547 7.85001 7.21547 3.05001 12.2155 3.05001C13.1155 3.05001 14.2155 3.25001 15.2155 3.55001C15.5155 3.65001 15.8155 3.45001 15.8155 3.25001C15.9155 2.95001 15.7155 2.65001 15.5155 2.55001Z" fill="black"/>
<path d="M21.1153 0.15C20.9153 -0.05 20.6153 -0.05 20.4153 0.15L3.11533 17.45C2.91533 17.65 2.91533 17.95 3.11533 18.15C3.21533 18.25 3.31533 18.25 3.51533 18.25C3.71533 18.25 3.81533 18.25 3.91533 18.15L21.2153 0.849999C21.3153 0.649999 21.3153 0.35 21.1153 0.15Z" fill="black"/>
</svg>
