<svg xmlns="http://www.w3.org/2000/svg" width="37.977" height="33.23" viewBox="0 0 37.977 33.23">
  <g id="camera-line" transform="translate(-2 -4)">
    <path id="Trazado_86" data-name="Trazado 86" d="M37.6,8.747H28.94L27.682,5.519A2.374,2.374,0,0,0,25.475,4H16.5a2.374,2.374,0,0,0-2.219,1.519L13.037,8.747H4.374A2.374,2.374,0,0,0,2,11.121V34.856A2.374,2.374,0,0,0,4.374,37.23H37.6a2.374,2.374,0,0,0,2.374-2.374V11.121A2.374,2.374,0,0,0,37.6,8.747Zm0,26.109H4.374V11.121H14.663L16.5,6.374h8.972l1.84,4.747H37.6Z" transform="translate(0 0)" fill="#6002b2"/>
    <path id="Trazado_87" data-name="Trazado 87" d="M9,20.681A10.681,10.681,0,1,0,19.681,10,10.681,10.681,0,0,0,9,20.681Zm19.463,0A8.782,8.782,0,1,1,19.681,11.9a8.782,8.782,0,0,1,8.782,8.782Z" transform="translate(1.307 1.121)" fill="#6002b2"/>
    <path id="Trazado_88" data-name="Trazado 88" d="M10.117,12.979a.949.949,0,0,0-.949-.949H6.319a.949.949,0,1,0,0,1.9H9.168a.949.949,0,0,0,.949-.949Z" transform="translate(0.629 1.5)" fill="#6002b2"/>
    <path id="Trazado_89" data-name="Trazado 89" d="M12.34,20.046a6.61,6.61,0,0,0,3.845,5.934l1.009-1.626a4.747,4.747,0,1,1,4.878-7.845l1.021-1.638A6.6,6.6,0,0,0,12.34,20.046Z" transform="translate(1.931 1.756)" fill="#6002b2"/>
  </g>
</svg>
