<svg id="Logo-03" xmlns="http://www.w3.org/2000/svg" xmlns:xlink="http://www.w3.org/1999/xlink" width="127.325" height="60.411" viewBox="0 0 127.325 60.411">
  <defs>
    <clipPath id="clip-path">
      <path id="Trazado_45" data-name="Trazado 45" d="M163.232,42.755s3.683,2.9,3.683,7.209V66.418H143.8V36.8h20.059Z" transform="translate(-143.8 -36.8)"/>
    </clipPath>
    <clipPath id="clip-path-2">
      <rect id="Rect치ngulo_12" data-name="Rect치ngulo 12" width="24.368" height="27.737"/>
    </clipPath>
    <clipPath id="clip-path-3">
      <path id="Trazado_44" data-name="Trazado 44" d="M134.312,34.161A9.48,9.48,0,0,1,138,39.724c.862,3.761,2.821,16.611,2.821,16.611L102.657,97.628,10.2,89.636,20.543,30.322,58.936-2.9l67.541,27.816,7.757-.313Z" transform="translate(-10.2 2.9)"/>
    </clipPath>
    <clipPath id="clip-path-4">
      <path id="Trazado_54" data-name="Trazado 54" d="M181.4,42.618s4.388,2.586,4.388,9.794l1.567,10.421-5.015,4.153L164.4,66.359l.392-23.349,12.85-4.309,2.507,1.489Z" transform="translate(-164.4 -38.7)" opacity="0.69"/>
    </clipPath>
    <clipPath id="clip-path-5">
      <path id="Trazado_53" data-name="Trazado 53" d="M161,36.7l2.351,33.457,26.327-4.466-3.291-25.308Z" transform="translate(-161 -36.7)"/>
    </clipPath>
    <clipPath id="clip-path-6">
      <path id="Trazado_52" data-name="Trazado 52" d="M152.691,34.161a9.48,9.48,0,0,1,3.683,5.563c.862,3.761,2.821,16.611,2.821,16.611L121.036,97.628,28.5,89.636,38.843,30.322,77.236-2.9l67.619,27.816,7.757-.313Z" transform="translate(-28.5 2.9)"/>
    </clipPath>
    <clipPath id="clip-path-7">
      <path id="Trazado_60" data-name="Trazado 60" d="M58.31,62.221H49.848l-1.489,2.586H31.2V33.7H60.034V62.064Z" transform="translate(-31.2 -33.7)"/>
    </clipPath>
  </defs>
  <path id="Trazado_38" data-name="Trazado 38" d="M74.7,31.813V59.863a3.189,3.189,0,0,1-.94,2.351,3.129,3.129,0,0,1-2.351.862,3.468,3.468,0,0,1-2.351-.862,3.129,3.129,0,0,1-.862-2.351V31.813a3.468,3.468,0,0,1,.862-2.351,3.129,3.129,0,0,1,2.351-.862C73.606,28.6,74.7,29.7,74.7,31.813Z" transform="translate(-39.209 -28.6)" fill="#5fbd7a"/>
  <g id="Grupo_27" data-name="Grupo 27" transform="translate(88.226 6.425)">
    <g id="Grupo_22" data-name="Grupo 22">
      <g id="Grupo_21" data-name="Grupo 21" clip-path="url(#clip-path)">
        <g id="Grupo_20" data-name="Grupo 20" transform="translate(1.567 2.977)" clip-path="url(#clip-path-2)">
          <g id="Grupo_19" data-name="Grupo 19" transform="translate(-106.248 -34.084)" clip-path="url(#clip-path-3)">
            <path id="Trazado_39" data-name="Trazado 39" d="M45.58,65.96a11.642,11.642,0,0,1-8.776-3.6A12.175,12.175,0,0,1,33.278,53.5,11.871,11.871,0,0,1,36.8,44.726,12,12,0,0,1,45.58,41.2a11.871,11.871,0,0,1,8.776,3.526A12,12,0,0,1,57.881,53.5V65.176a8.293,8.293,0,0,1-8.227,8.306H45.58a5.561,5.561,0,0,0-4.153,1.724A5.871,5.871,0,0,0,39.7,79.358a5.561,5.561,0,0,0,1.724,4.153,5.737,5.737,0,0,0,4.153,1.724,5.561,5.561,0,0,0,4.153-1.724,5.737,5.737,0,0,0,1.724-4.153A3.325,3.325,0,0,1,57.1,77.008a3.129,3.129,0,0,1,.862,2.351,12.307,12.307,0,0,1-12.38,12.38,12.467,12.467,0,0,1-8.854-21.156,11.762,11.762,0,0,1,8.776-3.6h4.231a1.607,1.607,0,0,0,1.645-1.645V53.58a5.561,5.561,0,0,0-1.724-4.153A5.737,5.737,0,0,0,45.5,47.7a5.561,5.561,0,0,0-4.153,1.724,5.737,5.737,0,0,0-1.724,4.153,5.561,5.561,0,0,0,1.724,4.153A5.443,5.443,0,0,0,45.5,59.456a3.468,3.468,0,0,1,2.351.862,3.408,3.408,0,0,1,0,4.7A2.9,2.9,0,0,1,45.58,65.96Z" transform="translate(-15.179 -6.646)" fill="#f211a1"/>
            <path id="Trazado_40" data-name="Trazado 40" d="M74.7,31.911V59.962a3.189,3.189,0,0,1-.94,2.351,3.129,3.129,0,0,1-2.351.862,3.468,3.468,0,0,1-2.351-.862,3.129,3.129,0,0,1-.862-2.351V31.911a3.468,3.468,0,0,1,.862-2.351,3.129,3.129,0,0,1,2.351-.862C73.606,28.621,74.7,29.718,74.7,31.911Z" transform="translate(-22.755 -3.939)" fill="#f211a1"/>
            <path id="Trazado_41" data-name="Trazado 41" d="M100.764,49.919l-6.19,6.033A3.174,3.174,0,0,1,92.3,56.971a2.98,2.98,0,0,1-2.351-1.019A3.548,3.548,0,0,1,88.932,53.6a3.283,3.283,0,0,1,1.1-2.272l3.526-3.448A6.741,6.741,0,0,0,92.3,47.8a5.561,5.561,0,0,0-4.153,1.724,5.737,5.737,0,0,0-1.724,4.153,5.561,5.561,0,0,0,1.724,4.153A5.443,5.443,0,0,0,92.3,59.556h4.309a3.468,3.468,0,0,1,2.351.862,3.129,3.129,0,0,1,.862,2.351,3.468,3.468,0,0,1-.862,2.351,3.189,3.189,0,0,1-2.351.94H92.3a11.642,11.642,0,0,1-8.776-3.6A12.175,12.175,0,0,1,80,53.6a11.871,11.871,0,0,1,3.526-8.776,12.583,12.583,0,0,1,17.708.235,3.234,3.234,0,0,1,.94,2.194A3.277,3.277,0,0,1,100.764,49.919Z" transform="translate(-25.309 -6.668)" fill="#f211a1"/>
            <path id="Trazado_42" data-name="Trazado 42" d="M124,65.96a11.642,11.642,0,0,1-8.776-3.6A12.175,12.175,0,0,1,111.7,53.5a11.871,11.871,0,0,1,3.526-8.776A12,12,0,0,1,124,41.2a12.175,12.175,0,0,1,8.854,3.526,11.762,11.762,0,0,1,3.6,8.776v9.089a3.189,3.189,0,0,1-.94,2.351,3.129,3.129,0,0,1-2.351.862,3.468,3.468,0,0,1-2.351-.862,3.129,3.129,0,0,1-.862-2.351V53.58a5.561,5.561,0,0,0-1.724-4.153A5.871,5.871,0,0,0,124.08,47.7a5.561,5.561,0,0,0-4.153,1.724A5.737,5.737,0,0,0,118.2,53.58a5.561,5.561,0,0,0,1.724,4.153,5.443,5.443,0,0,0,4.153,1.724,3.468,3.468,0,0,1,2.351.862,3.408,3.408,0,0,1,0,4.7A3.246,3.246,0,0,1,124,65.96Z" transform="translate(-32.171 -6.646)" fill="#f211a1"/>
            <path id="Trazado_43" data-name="Trazado 43" d="M174.472,51.6a4.017,4.017,0,0,0-3.918-3.918,3.788,3.788,0,0,0-3.134,1.489v13.4a3.189,3.189,0,0,1-.94,2.351,3.129,3.129,0,0,1-2.351.862,3.468,3.468,0,0,1-2.351-.862,3.129,3.129,0,0,1-.862-2.351V51.6a3.675,3.675,0,0,0-1.175-2.742A3.8,3.8,0,0,0,157,47.682a4.105,4.105,0,0,0-2.821,1.1A3.557,3.557,0,0,0,153,51.521v10.97a3.468,3.468,0,0,1-.862,2.351,3.129,3.129,0,0,1-2.351.862,3.468,3.468,0,0,1-2.351-.862,3.189,3.189,0,0,1-.94-2.351V51.521A10.3,10.3,0,0,1,157,41.1a10.468,10.468,0,0,1,6.817,2.507,10.663,10.663,0,0,1,14.26.47,9.98,9.98,0,0,1,2.977,7.444V65.938a4.013,4.013,0,0,0,4,4h.157a3.325,3.325,0,0,1,2.351,5.641,3.129,3.129,0,0,1-2.351.862h-.157a10.434,10.434,0,0,1-10.5-10.5V51.6Z" transform="translate(-39.704 -6.624)" fill="#f211a1"/>
          </g>
        </g>
      </g>
    </g>
    <path id="Trazado_46" data-name="Trazado 46" d="M171.5,51.538a10.594,10.594,0,0,0-3.291-6.738A10.5,10.5,0,0,0,165,51.538h0v11.91a3.311,3.311,0,0,0,3.291,3.291h0a3.311,3.311,0,0,0,3.291-3.291l-.078-11.91Z" transform="translate(-148.389 -38.532)" fill="#1100f7"/>
    <g id="Grupo_26" data-name="Grupo 26" transform="translate(16.141 1.489)" opacity="0.69">
      <g id="Grupo_25" data-name="Grupo 25" clip-path="url(#clip-path-4)">
        <g id="Grupo_24" data-name="Grupo 24" transform="translate(-2.664 -1.567)" clip-path="url(#clip-path-5)">
          <g id="Grupo_23" data-name="Grupo 23" transform="translate(-103.819 -31.028)" clip-path="url(#clip-path-6)">
            <path id="Trazado_47" data-name="Trazado 47" d="M63.958,66.06a11.642,11.642,0,0,1-8.776-3.6A12.175,12.175,0,0,1,51.657,53.6a11.871,11.871,0,0,1,3.526-8.776A12,12,0,0,1,63.958,41.3a11.871,11.871,0,0,1,8.776,3.526A12,12,0,0,1,76.26,53.6V65.276a8.294,8.294,0,0,1-8.227,8.305H63.88a5.561,5.561,0,0,0-4.153,1.724A5.871,5.871,0,0,0,58,79.458a5.561,5.561,0,0,0,1.724,4.153,5.737,5.737,0,0,0,4.153,1.724,5.561,5.561,0,0,0,4.153-1.724,5.737,5.737,0,0,0,1.724-4.153A3.325,3.325,0,0,1,75.4,77.108a3.129,3.129,0,0,1,.862,2.351,12.307,12.307,0,0,1-12.38,12.38,12.467,12.467,0,0,1-8.854-21.156,11.762,11.762,0,0,1,8.776-3.6h4.231a1.607,1.607,0,0,0,1.645-1.645V53.6a5.561,5.561,0,0,0-1.724-4.153A5.737,5.737,0,0,0,63.8,47.725a5.561,5.561,0,0,0-4.153,1.724A5.737,5.737,0,0,0,57.925,53.6a5.561,5.561,0,0,0,1.724,4.153A5.443,5.443,0,0,0,63.8,59.478a3.468,3.468,0,0,1,2.351.862,3.408,3.408,0,0,1,0,4.7A2.482,2.482,0,0,1,63.958,66.06Z" transform="translate(-33.479 -6.668)" fill="#3ac7ed"/>
            <path id="Trazado_48" data-name="Trazado 48" d="M93.1,32.011V60.062a3.189,3.189,0,0,1-.94,2.351,3.129,3.129,0,0,1-2.351.862,3.468,3.468,0,0,1-2.351-.862,3.129,3.129,0,0,1-.862-2.351V32.011a3.468,3.468,0,0,1,.862-2.351,3.129,3.129,0,0,1,2.351-.862C92.006,28.721,93.1,29.818,93.1,32.011Z" transform="translate(-41.076 -3.961)" fill="#3ac7ed"/>
            <path id="Trazado_49" data-name="Trazado 49" d="M119.142,49.919l-6.19,6.033a3.174,3.174,0,0,1-2.272,1.019,2.98,2.98,0,0,1-2.351-1.019,3.548,3.548,0,0,1-1.019-2.351,3.283,3.283,0,0,1,1.1-2.272l3.526-3.448a6.741,6.741,0,0,0-1.254-.078,5.561,5.561,0,0,0-4.153,1.724A5.737,5.737,0,0,0,104.8,53.68a5.561,5.561,0,0,0,1.724,4.153,5.443,5.443,0,0,0,4.153,1.724h4.309a3.468,3.468,0,0,1,2.351.862,3.129,3.129,0,0,1,.862,2.351,3.468,3.468,0,0,1-.862,2.351,3.189,3.189,0,0,1-2.351.94H110.6a11.642,11.642,0,0,1-8.776-3.6A12.175,12.175,0,0,1,98.3,53.6a11.871,11.871,0,0,1,3.526-8.776,12.583,12.583,0,0,1,17.708.235,3.234,3.234,0,0,1,.94,2.194A2.924,2.924,0,0,1,119.142,49.919Z" transform="translate(-43.609 -6.668)" fill="#3ac7ed"/>
            <path id="Trazado_50" data-name="Trazado 50" d="M142.38,66.06a11.642,11.642,0,0,1-8.776-3.6A12.242,12.242,0,0,1,130,53.6a11.871,11.871,0,0,1,3.526-8.776A12,12,0,0,1,142.3,41.3a12.175,12.175,0,0,1,8.854,3.526,11.762,11.762,0,0,1,3.6,8.776v9.089a3.189,3.189,0,0,1-.94,2.351,3.129,3.129,0,0,1-2.351.862,3.468,3.468,0,0,1-2.351-.862,3.129,3.129,0,0,1-.862-2.351V53.6a5.561,5.561,0,0,0-1.724-4.153,5.871,5.871,0,0,0-4.153-1.724,5.561,5.561,0,0,0-4.153,1.724A5.737,5.737,0,0,0,136.5,53.6a5.561,5.561,0,0,0,1.724,4.153,5.443,5.443,0,0,0,4.153,1.724,3.468,3.468,0,0,1,2.351.862,3.408,3.408,0,0,1,0,4.7A2.98,2.98,0,0,1,142.38,66.06Z" transform="translate(-50.471 -6.668)" fill="#3ac7ed"/>
            <path id="Trazado_51" data-name="Trazado 51" d="M192.872,51.7a4.017,4.017,0,0,0-3.918-3.918,3.788,3.788,0,0,0-3.134,1.489v13.4a3.189,3.189,0,0,1-.94,2.351,3.129,3.129,0,0,1-2.351.862,3.468,3.468,0,0,1-2.351-.862,3.129,3.129,0,0,1-.862-2.351V51.7a3.675,3.675,0,0,0-1.175-2.742,3.8,3.8,0,0,0-2.742-1.175,4.105,4.105,0,0,0-2.821,1.1,3.557,3.557,0,0,0-1.175,2.742v10.97a3.468,3.468,0,0,1-.862,2.351,3.129,3.129,0,0,1-2.351.862,3.468,3.468,0,0,1-2.351-.862,3.189,3.189,0,0,1-.94-2.351V51.621A10.3,10.3,0,0,1,175.4,41.2a10.468,10.468,0,0,1,6.817,2.507,10.663,10.663,0,0,1,14.26.47,9.98,9.98,0,0,1,2.977,7.444v14.5a4.013,4.013,0,0,0,4,4h.157a3.325,3.325,0,0,1,2.351,5.641,3.129,3.129,0,0,1-2.351.862h-.235a10.434,10.434,0,0,1-10.5-10.5Z" transform="translate(-58.025 -6.646)" fill="#3ac7ed"/>
          </g>
        </g>
      </g>
    </g>
  </g>
  <g id="Grupo_28" data-name="Grupo 28" transform="translate(63.075 9.873)">
    <path id="Trazado_55" data-name="Trazado 55" d="M124,65.96a11.642,11.642,0,0,1-8.776-3.6A12.175,12.175,0,0,1,111.7,53.5a11.871,11.871,0,0,1,3.526-8.776A12,12,0,0,1,124,41.2a12.175,12.175,0,0,1,8.854,3.526,11.762,11.762,0,0,1,3.6,8.776v9.089a3.189,3.189,0,0,1-.94,2.351,3.129,3.129,0,0,1-2.351.862,3.468,3.468,0,0,1-2.351-.862,3.129,3.129,0,0,1-.862-2.351V53.5a5.561,5.561,0,0,0-1.724-4.153,5.871,5.871,0,0,0-4.153-1.724,5.561,5.561,0,0,0-4.153,1.724A5.737,5.737,0,0,0,118.2,53.5a5.561,5.561,0,0,0,1.724,4.153,5.443,5.443,0,0,0,4.153,1.724,3.468,3.468,0,0,1,2.351.862,3.408,3.408,0,0,1,0,4.7A3.142,3.142,0,0,1,124,65.96Z" transform="translate(-111.7 -41.2)" fill="#ff7900" opacity="0.89"/>
    <path id="Trazado_56" data-name="Trazado 56" d="M139.053,68.319h-1.8a2.357,2.357,0,0,1-2.351-2.351V54.451a2.357,2.357,0,0,1,2.351-2.351h1.8a2.357,2.357,0,0,1,2.351,2.351V65.89A2.375,2.375,0,0,1,139.053,68.319Z" transform="translate(-116.722 -43.559)" fill="#fcde06" opacity="0.54"/>
  </g>
  <path id="Trazado_57" data-name="Trazado 57" d="M100.764,49.841l-6.19,6.112A3.174,3.174,0,0,1,92.3,56.971a2.98,2.98,0,0,1-2.351-1.019A3.548,3.548,0,0,1,88.932,53.6a3.283,3.283,0,0,1,1.1-2.272l3.526-3.448A6.741,6.741,0,0,0,92.3,47.8a5.561,5.561,0,0,0-4.153,1.724,5.737,5.737,0,0,0-1.724,4.153,5.561,5.561,0,0,0,1.724,4.153A5.443,5.443,0,0,0,92.3,59.556h4.309a3.468,3.468,0,0,1,2.351.862,3.129,3.129,0,0,1,.862,2.351,3.468,3.468,0,0,1-.862,2.351,3.189,3.189,0,0,1-2.351.94H92.3a11.642,11.642,0,0,1-8.776-3.6A12.175,12.175,0,0,1,80,53.6a11.871,11.871,0,0,1,3.526-8.776,12.583,12.583,0,0,1,17.708.235,3.234,3.234,0,0,1,.94,2.194A3.142,3.142,0,0,1,100.764,49.841Z" transform="translate(-41.763 -31.349)" fill="#1bb9ef"/>
  <g id="Grupo_33" data-name="Grupo 33" transform="translate(0 3.996)">
    <path id="Trazado_58" data-name="Trazado 58" d="M45.458,65.96a11.642,11.642,0,0,1-8.776-3.6A12.175,12.175,0,0,1,33.157,53.5a11.871,11.871,0,0,1,3.526-8.776A12,12,0,0,1,45.458,41.2a11.871,11.871,0,0,1,8.776,3.526A12,12,0,0,1,57.76,53.5V65.176a8.293,8.293,0,0,1-8.227,8.306H45.38a5.561,5.561,0,0,0-4.153,1.724A5.871,5.871,0,0,0,39.5,79.358a5.561,5.561,0,0,0,1.724,4.153,5.737,5.737,0,0,0,4.153,1.724,5.561,5.561,0,0,0,4.153-1.724,5.737,5.737,0,0,0,1.724-4.153A3.325,3.325,0,0,1,56.9,77.008a3.129,3.129,0,0,1,.862,2.351,12.306,12.306,0,0,1-12.38,12.38,12.467,12.467,0,0,1-8.854-21.156,11.762,11.762,0,0,1,8.776-3.6h4.231a1.607,1.607,0,0,0,1.645-1.645V53.5a5.561,5.561,0,0,0-1.724-4.153A5.737,5.737,0,0,0,45.3,47.625a5.561,5.561,0,0,0-4.153,1.724A5.737,5.737,0,0,0,39.425,53.5a5.561,5.561,0,0,0,1.724,4.153A5.443,5.443,0,0,0,45.3,59.378a3.468,3.468,0,0,1,2.351.862,3.408,3.408,0,0,1,0,4.7A2.482,2.482,0,0,1,45.458,65.96Z" transform="translate(-31.59 -35.323)" fill="#e82dc5"/>
    <g id="Grupo_32" data-name="Grupo 32" opacity="0.46">
      <g id="Grupo_31" data-name="Grupo 31">
        <g id="Grupo_29" data-name="Grupo 29" clip-path="url(#clip-path-7)">
          <path id="Trazado_59" data-name="Trazado 59" d="M45.458,65.96a11.642,11.642,0,0,1-8.776-3.6A12.175,12.175,0,0,1,33.157,53.5a11.871,11.871,0,0,1,3.526-8.776A12,12,0,0,1,45.458,41.2a11.871,11.871,0,0,1,8.776,3.526A12,12,0,0,1,57.76,53.5V65.176a8.293,8.293,0,0,1-8.227,8.306H45.38a5.561,5.561,0,0,0-4.153,1.724A5.871,5.871,0,0,0,39.5,79.358a5.561,5.561,0,0,0,1.724,4.153,5.737,5.737,0,0,0,4.153,1.724,5.561,5.561,0,0,0,4.153-1.724,5.737,5.737,0,0,0,1.724-4.153A3.325,3.325,0,0,1,56.9,77.008a3.129,3.129,0,0,1,.862,2.351,12.306,12.306,0,0,1-12.38,12.38,12.467,12.467,0,0,1-8.854-21.156,11.762,11.762,0,0,1,8.776-3.6h4.231a1.607,1.607,0,0,0,1.645-1.645V53.5a5.561,5.561,0,0,0-1.724-4.153A5.737,5.737,0,0,0,45.3,47.625a5.561,5.561,0,0,0-4.153,1.724A5.737,5.737,0,0,0,39.425,53.5a5.561,5.561,0,0,0,1.724,4.153A5.443,5.443,0,0,0,45.3,59.378a3.468,3.468,0,0,1,2.351.862,3.408,3.408,0,0,1,0,4.7A2.482,2.482,0,0,1,45.458,65.96Z" transform="translate(-31.59 -35.323)" fill="#3319b2"/>
        </g>
        <g id="Grupo_30" data-name="Grupo 30" clip-path="url(#clip-path-7)">
          <rect id="Rect치ngulo_13" data-name="Rect치ngulo 13" width="28.834" height="31.106" fill="none"/>
        </g>
      </g>
      <path id="Trazado_62" data-name="Trazado 62" d="M59.613,70.738h0A3.227,3.227,0,0,1,56.4,67.525V64.313A3.227,3.227,0,0,1,59.613,61.1h0a3.227,3.227,0,0,1,3.212,3.212v3.213A3.227,3.227,0,0,1,59.613,70.738Z" transform="translate(-36.655 -39.631)" fill="#3319b2"/>
    </g>
  </g>
  <path id="Trazado_63" data-name="Trazado 63" d="M104.634,47.945a3.046,3.046,0,0,0-.313-1.645,2.754,2.754,0,0,0-.548-.705,11.34,11.34,0,0,0-1.332-1.254,7.664,7.664,0,0,0-1.41-.94l-8.384,8.149h0l-.392.392a3.635,3.635,0,0,0-.784,1.254h0a.706.706,0,0,0-.078.392,3,3,0,0,0,.627,2.272,3.629,3.629,0,0,0,1.254,1.1h0a3.769,3.769,0,0,0,1.41.392h.627a3.274,3.274,0,0,0,.784-.313h.078c.078-.078.157-.078.235-.157l-.078.078.157-.157.078-.078a7.084,7.084,0,0,0,.862-.784h0l6.19-6.033a1.082,1.082,0,0,0,.235-.313A2.311,2.311,0,0,0,104.634,47.945Z" transform="translate(-44.223 -31.804)" fill="#841ddd" opacity="0.4"/>
</svg>
