<svg id="logout" xmlns="http://www.w3.org/2000/svg" width="24.391" height="28.457" viewBox="0 0 24.391 28.457">
  <path id="Trazado_92" data-name="Trazado 92" d="M6.533,30.707h12.2a2.034,2.034,0,0,0,2.033-2.033V25.625H18.728v3.049H6.533V4.283h12.2V7.332h2.033V4.283A2.034,2.034,0,0,0,18.728,2.25H6.533A2.034,2.034,0,0,0,4.5,4.283V28.674a2.034,2.034,0,0,0,2.033,2.033Z" transform="translate(-4.5 -2.25)" fill="#fff"/>
  <path id="Trazado_93" data-name="Trazado 93" d="M22.008,22.008l3.645-3.644H11.25V16.332h14.4l-3.644-3.644,1.436-1.437,6.1,6.1-6.1,6.1Z" transform="translate(-5.152 -3.12)" fill="#fff"/>
</svg>
