<svg xmlns="http://www.w3.org/2000/svg" xmlns:xlink="http://www.w3.org/1999/xlink" width="425" height="894" viewBox="0 0 425 894">
  <defs>
    <clipPath id="clip-path">
      <path id="Trazado_45" data-name="Trazado 45" d="M176.889,46.94s6.271,4.937,6.271,12.275V87.234H143.8V36.8h34.157Z" transform="translate(-143.8 -36.8)"/>
    </clipPath>
    <clipPath id="clip-path-2">
      <rect id="Rectángulo_12" data-name="Rectángulo 12" width="41.495" height="47.232"/>
    </clipPath>
    <clipPath id="clip-path-3">
      <path id="Trazado_44" data-name="Trazado 44" d="M221.544,60.21a16.144,16.144,0,0,1,6.271,9.473c1.468,6.4,4.8,28.286,4.8,28.286l-64.978,70.315L10.2,154.674l17.612-101L93.19-2.9,208.2,44.466l13.209-.534Z" transform="translate(-10.2 2.9)"/>
    </clipPath>
    <clipPath id="clip-path-4">
      <path id="Trazado_54" data-name="Trazado 54" d="M193.353,45.371s7.472,4.4,7.472,16.678l2.668,17.745-8.539,7.071L164.4,85.8l.667-39.76L186.949,38.7l4.27,2.535Z" transform="translate(-164.4 -38.7)" opacity="0.69"/>
    </clipPath>
    <clipPath id="clip-path-5">
      <path id="Trazado_53" data-name="Trazado 53" d="M161,36.7l4,56.972,44.831-7.605-5.6-43.1Z" transform="translate(-161 -36.7)"/>
    </clipPath>
    <clipPath id="clip-path-6">
      <path id="Trazado_52" data-name="Trazado 52" d="M239.977,60.21a16.144,16.144,0,0,1,6.271,9.473c1.468,6.4,4.8,28.286,4.8,28.286l-64.978,70.315L28.5,154.674l17.612-101L111.49-2.9,226.635,44.466l13.209-.534Z" transform="translate(-28.5 2.9)"/>
    </clipPath>
    <clipPath id="clip-path-7">
      <path id="Trazado_60" data-name="Trazado 60" d="M77.365,82.266H62.955l-2.535,4.4H31.2V33.7H80.3V82Z" transform="translate(-31.2 -33.7)"/>
    </clipPath>
    <clipPath id="clip-Mesa_de_trabajo_1">
      <rect width="425" height="894"/>
    </clipPath>
  </defs>
  <g id="Mesa_de_trabajo_1" data-name="Mesa de trabajo – 1" clip-path="url(#clip-Mesa_de_trabajo_1)">
    <rect width="425" height="894" fill="#fff"/>
    <g id="Doubs" transform="translate(-412.041 -174.802)" opacity="0.85">
      <path id="Shape" d="M733.453,248.529c0,243.261-355.154,637.1-487.005,637.1S0,732.929,0,345.351C0,133.412,95.967,0,227.819,0S733.453,5.268,733.453,248.529Z" transform="translate(29.996 54.141)" fill="#e16197"/>
      <path id="Shape-2" data-name="Shape" d="M103.366,667.719c-176.989-36.126-83.8-283.81-33.418-410.255C116.615,140.325,221.615-20.214,400.637,2.1,610.291,28.225,687.963,303.331,665.784,412S280.354,703.845,103.366,667.719Z" transform="translate(0 383.738)" fill="#9844af"/>
      <path id="Shape-3" data-name="Shape" d="M267.212,497.1C90.2,460.951-47.631,348.7,15.62,170.322,104.882-81.406,189.582,13.957,368.633,36.279,578.323,62.422,650.082,256.937,627.9,365.667S444.23,533.244,267.212,497.1Z" transform="translate(98.037 516.161)" fill="#f4f3ef" opacity="0.1"/>
      <path id="Shape-4" data-name="Shape" d="M201.355,397.658c-142.755-29.2-231.319-124.1-192-219.85C45.778,89.112,217.663-84.278,278.516,48.121c90,195.819,228.54,170.551,211.738,253.043S344.108,426.859,201.355,397.658Z" transform="translate(115.596 701.262)" fill="#4d56b5"/>
      <path id="Shape-5" data-name="Shape" d="M201.355,397.658c-142.755-29.2-231.319-124.1-192-219.85C45.778,89.112,217.663-84.278,278.516,48.121c90,195.819,228.54,170.551,211.738,253.043S344.108,426.859,201.355,397.658Z" transform="translate(501.279 744.677)" fill="#a75fbb"/>
      <path id="Shape-6" data-name="Shape" d="M65.343,137.92c38.428-168.712,243.423-188.276,218.15-27.387C266.037,221.667,318.012,294.013,401.1,390.268c62.855,72.816-102.652,182.57-356.115,48.133C-22.2,395.431-13.085,260.9,65.343,137.92Z" transform="translate(51.214 616.394)" fill="#2e39a9"/>
      <path id="Shape-7" data-name="Shape" d="M56.013,45.345C201.6-182.586,326.329,531.409,66.326,365.385-17.91,311.6-22.527,168.31,56.013,45.345Z" transform="translate(20.485 693.58)" fill="#0ab7e0"/>
      <path id="Shape-8" data-name="Shape" d="M302.316,50.157C284.189,218.568,768.666,60.34,685.882,208.024S381.15,416.764,262.116,296.49C164.608,197.964-60.307,308.348,15.235,192.051,83.431,87.071,316.98-86.076,302.316,50.157Z" transform="translate(547.254 130.596)" fill="#ffcd00"/>
      <path id="Shape-9" data-name="Shape" d="M368.8,263.295c-165.525,9.53-93.757,218.137,48.954,289.813C291.513,553.108,0,434.189,0,288.775S13.977,0,140.219,0,368.8,117.881,368.8,263.295Z" transform="translate(924.772 603.225)" fill="#0ab7e0"/>
      <path id="Shape-10" data-name="Shape" d="M378.615,305.179c0,168.546-94.023,230.37-195.278,230.37S0,398.916,0,230.37,94.021,0,195.278,0,378.615,136.633,378.615,305.179Z" transform="translate(1191.815 223.146)" fill="#e16197"/>
      <path id="Shape-11" data-name="Shape" d="M274.078,378.934C207.8,421.6,161.616,415.368,72.44,367.776S-24.672,248.3,54.713,100.067,204.869-1.5,274.078,48.99C364.558,114.99,446.5,267.944,274.078,378.934Z" transform="translate(1087.559 0.001)" fill="#9844af"/>
      <path id="Shape-12" data-name="Shape" d="M285.31,1.478c231.441,23.15,318.407,322.7,302.1,486.533S478.047,466.252,246.606,443.1,53.443,364.5,69.748,200.671C-94.754,235.464,53.869-21.675,285.31,1.478Z" transform="translate(916.359 183.638)" fill="#2e39a9"/>
      <path id="Shape-13" data-name="Shape" d="M218.224,1.053c126.3,12.6,162.661,258.175,153.762,347.341S312.3,336.552,186,323.951-8.119,269.676.777,180.512,91.922-11.546,218.224,1.053Z" transform="translate(1094.744 364.731)" fill="#f4f3ef" opacity="0.1"/>
      <path id="Shape-14" data-name="Shape" d="M302.537.606c82.893,8.272,19,206.777,11.159,285.4s-39.038-9.088-121.934-17.36S-7.465,227.378.376,148.76,219.641-7.666,302.537.606Z" transform="translate(997.935 430.927)" fill="#fff"/>
      <path id="Shape-15" data-name="Shape" d="M444.3,164.637c86.112,155.253-3.738,385.679-105.717,442.606S92.288,494.931,19.973,365.483,83.028-36.106,244.3,3.992C328.465,24.919,402.247,88.819,444.3,164.637Z" transform="translate(1034.882 537.013)" fill="#9844af"/>
      <path id="Shape-16" data-name="Shape" d="M319.331,279.39c4.674,106.96-33.216,182.833-95.208,217.455S71.749,435.326,30.448,349.808C-57.658,167.372,60.825-75.732,189.868,22.644,269.046,83,314.978,179.756,319.331,279.39Z" transform="translate(1151.942 646.024)" fill="#f4f3ef" opacity="0.1"/>
      <path id="Shape-17" data-name="Shape" d="M184.8,84.907C189.47,191.89,139.23,296.9,89.641,302.409,21.232,310.012,2.062,226.459.056,157.6-2,86.9,53.531-95.469,89.643,62.767,116.32,179.67,180.447-14.748,184.8,84.907Z" transform="translate(1369.966 788.326)" fill="#e2164b"/>
      <path id="Shape-18" data-name="Shape" d="M682.833,286.415C618.174,411.047,345.507,567.356,89.786,504.455s116.067-96.039,116.067-241.349S287.945,0,413.989,0c54.205,0,103.991,21.766,143.14,58.155C638.092,109.9,722.743,209.487,682.833,286.415Z" transform="translate(649.885 603.59)" fill="#ff612e"/>
      <path id="Shape-19" data-name="Shape" d="M323.976,372.34C178.211,409.234-34.772,395.758,4.822,284.752,70.3,101.19,228.732-21.562,424.708,3.162c77.109,9.726,150.9,70.117,187.641,126.282C696.855,258.613,546.39,316.045,323.976,372.34Z" transform="translate(606.516 549.085)" fill="#ffcd00"/>
      <path id="Shape-20" data-name="Shape" d="M172.1,2.993C317.3,30.2,515.768,148.284,430.044,321.72,382.508,417.9,169.761,498.956,96.05,466.033-26.133,411.46-62.113-40.892,172.1,2.993Z" transform="translate(712.236 436.049)" fill="#b2cd0d"/>
      <path id="Shape-21" data-name="Shape" d="M523.173,272.193c0,150.135-180.479,370.981-324.949,370.981S0,422.328,0,272.193,53.753,0,198.224,0,523.173,122.06,523.173,272.193Z" transform="translate(717.533 277.966) rotate(35.025)" fill="#0ab7e0"/>
      <path id="Shape-22" data-name="Shape" d="M508.112,271.85c0,149.947-147.454,370.514-265.489,370.514S0,471.128,0,321.182,124.588,0,242.623,0,508.112,121.906,508.112,271.85Z" transform="matrix(0.682, 0.731, -0.731, 0.682, 723.569, 264.219)" fill="#fff"/>
    </g>
    <g id="Grupo_36" data-name="Grupo 36" transform="translate(110.138 386.677)">
      <g id="Logo-03" transform="translate(0 0)">
        <path id="Trazado_38" data-name="Trazado 38" d="M79.274,34.07V81.836a5.431,5.431,0,0,1-1.6,4,5.329,5.329,0,0,1-4,1.468,5.906,5.906,0,0,1-4-1.468,5.329,5.329,0,0,1-1.468-4V34.07a5.906,5.906,0,0,1,1.468-4,5.329,5.329,0,0,1,4-1.468C77.406,28.6,79.274,30.468,79.274,34.07Z" transform="translate(-18.833 -28.6)" fill="#5fbd7a"/>
        <g id="Grupo_27" data-name="Grupo 27" transform="translate(150.236 10.941)">
          <g id="Grupo_22" data-name="Grupo 22">
            <g id="Grupo_21" data-name="Grupo 21" clip-path="url(#clip-path)">
              <g id="Grupo_20" data-name="Grupo 20" transform="translate(2.668 5.07)" clip-path="url(#clip-path-2)">
                <g id="Grupo_19" data-name="Grupo 19" transform="translate(-180.923 -58.039)" clip-path="url(#clip-path-3)">
                  <path id="Trazado_39" data-name="Trazado 39" d="M54.281,83.362a19.825,19.825,0,0,1-14.944-6.137,20.732,20.732,0,0,1-6-15.077,20.214,20.214,0,0,1,6-14.944,20.426,20.426,0,0,1,14.944-6,20.214,20.214,0,0,1,14.944,6,20.426,20.426,0,0,1,6,14.944v19.88a14.123,14.123,0,0,1-14.01,14.143H54.281a9.47,9.47,0,0,0-7.071,2.935,10,10,0,0,0-2.935,7.071,9.47,9.47,0,0,0,2.935,7.071,9.769,9.769,0,0,0,7.071,2.935,9.47,9.47,0,0,0,7.071-2.935,9.769,9.769,0,0,0,2.935-7.071,5.661,5.661,0,0,1,9.607-4,5.329,5.329,0,0,1,1.468,4,20.956,20.956,0,0,1-21.081,21.081A20.956,20.956,0,0,1,33.2,106.178a20.426,20.426,0,0,1,6-14.943A20.029,20.029,0,0,1,54.148,85.1h7.2a2.736,2.736,0,0,0,2.8-2.8V62.281a9.47,9.47,0,0,0-2.935-7.071,9.769,9.769,0,0,0-7.071-2.935,9.47,9.47,0,0,0-7.071,2.935,9.769,9.769,0,0,0-2.935,7.071,9.47,9.47,0,0,0,2.935,7.071,9.269,9.269,0,0,0,7.071,2.935,5.906,5.906,0,0,1,4,1.468,5.8,5.8,0,0,1,0,8.005A4.935,4.935,0,0,1,54.281,83.362Z" transform="translate(-2.512 17.64)" fill="#f211a1"/>
                  <path id="Trazado_40" data-name="Trazado 40" d="M79.274,34.172V81.938a5.431,5.431,0,0,1-1.6,4,5.329,5.329,0,0,1-4,1.468,5.906,5.906,0,0,1-4-1.468,5.329,5.329,0,0,1-1.468-4V34.172a5.906,5.906,0,0,1,1.468-4,5.329,5.329,0,0,1,4-1.468C77.406,28.568,79.274,30.436,79.274,34.172Z" transform="translate(9.186 13.46)" fill="#f211a1"/>
                  <path id="Trazado_41" data-name="Trazado 41" d="M115.357,55.977,104.817,66.25a5.405,5.405,0,0,1-3.869,1.735,5.074,5.074,0,0,1-4-1.735,6.042,6.042,0,0,1-1.735-4,5.59,5.59,0,0,1,1.868-3.869l6-5.871a11.478,11.478,0,0,0-2.135-.133,9.47,9.47,0,0,0-7.071,2.935,9.769,9.769,0,0,0-2.935,7.071,9.47,9.47,0,0,0,2.935,7.071,9.269,9.269,0,0,0,7.071,2.935h7.338a5.906,5.906,0,0,1,4,1.468,5.329,5.329,0,0,1,1.468,4,5.906,5.906,0,0,1-1.468,4,5.431,5.431,0,0,1-4,1.6h-7.338A19.825,19.825,0,0,1,86,77.325a20.732,20.732,0,0,1-6-15.077A20.214,20.214,0,0,1,86,47.3a21.428,21.428,0,0,1,30.154.4,5.506,5.506,0,0,1,1.6,3.736A5.58,5.58,0,0,1,115.357,55.977Z" transform="translate(13.13 17.673)" fill="#f211a1"/>
                  <path id="Trazado_42" data-name="Trazado 42" d="M132.648,83.362A19.825,19.825,0,0,1,117.7,77.225a20.732,20.732,0,0,1-6-15.077,20.214,20.214,0,0,1,6-14.944,20.426,20.426,0,0,1,14.943-6,20.732,20.732,0,0,1,15.077,6,20.029,20.029,0,0,1,6.138,14.944V77.625a5.431,5.431,0,0,1-1.6,4,5.329,5.329,0,0,1-4,1.468,5.906,5.906,0,0,1-4-1.468,5.329,5.329,0,0,1-1.468-4V62.281a9.47,9.47,0,0,0-2.935-7.071,10,10,0,0,0-7.071-2.935,9.47,9.47,0,0,0-7.071,2.935,9.769,9.769,0,0,0-2.935,7.071,9.47,9.47,0,0,0,2.935,7.071,9.269,9.269,0,0,0,7.071,2.935,5.906,5.906,0,0,1,4,1.468,5.8,5.8,0,0,1,0,8.005A5.528,5.528,0,0,1,132.648,83.362Z" transform="translate(23.726 17.64)" fill="#f211a1"/>
                  <path id="Trazado_43" data-name="Trazado 43" d="M194.132,58.979a6.84,6.84,0,0,0-6.671-6.671,6.45,6.45,0,0,0-5.337,2.535V77.658a5.431,5.431,0,0,1-1.6,4,5.329,5.329,0,0,1-4,1.468,5.906,5.906,0,0,1-4-1.468,5.329,5.329,0,0,1-1.468-4V58.979a6.259,6.259,0,0,0-2-4.67,6.473,6.473,0,0,0-4.67-2,6.991,6.991,0,0,0-4.8,1.868,6.056,6.056,0,0,0-2,4.67V77.525a5.906,5.906,0,0,1-1.468,4,5.329,5.329,0,0,1-4,1.468,5.906,5.906,0,0,1-4-1.468,5.431,5.431,0,0,1-1.6-4V58.845A17.545,17.545,0,0,1,164.379,41.1a17.826,17.826,0,0,1,11.608,4.27,18.157,18.157,0,0,1,24.283.8,17,17,0,0,1,5.07,12.675V83.4a6.833,6.833,0,0,0,6.8,6.8h.267a5.661,5.661,0,0,1,4,9.607,5.329,5.329,0,0,1-4,1.468h-.267A17.767,17.767,0,0,1,194.266,83.4V58.979Z" transform="translate(35.357 17.607)" fill="#f211a1"/>
                </g>
              </g>
            </g>
          </g>
          <path id="Trazado_46" data-name="Trazado 46" d="M176.074,56.274c-.4-6.938-5.6-11.474-5.6-11.474A17.879,17.879,0,0,0,165,56.274h0v20.28a5.638,5.638,0,0,0,5.6,5.6h0a5.638,5.638,0,0,0,5.6-5.6l-.133-20.28Z" transform="translate(-136.714 -34.126)" fill="#1100f7"/>
          <g id="Grupo_26" data-name="Grupo 26" transform="translate(27.485 2.535)" opacity="0.69">
            <g id="Grupo_25" data-name="Grupo 25" clip-path="url(#clip-path-4)">
              <g id="Grupo_24" data-name="Grupo 24" transform="translate(-4.536 -2.668)" clip-path="url(#clip-path-5)">
                <g id="Grupo_23" data-name="Grupo 23" transform="translate(-176.787 -52.836)" clip-path="url(#clip-path-6)">
                  <path id="Trazado_47" data-name="Trazado 47" d="M72.714,83.462a19.825,19.825,0,0,1-14.944-6.138,20.732,20.732,0,0,1-6-15.077,20.214,20.214,0,0,1,6-14.944,20.426,20.426,0,0,1,14.944-6,20.214,20.214,0,0,1,14.944,6,20.426,20.426,0,0,1,6,14.944v19.88a14.123,14.123,0,0,1-14.01,14.143H72.581a9.47,9.47,0,0,0-7.071,2.935,10,10,0,0,0-2.935,7.071,9.47,9.47,0,0,0,2.935,7.071,9.769,9.769,0,0,0,7.071,2.935,9.47,9.47,0,0,0,7.071-2.935,9.769,9.769,0,0,0,2.935-7.071,5.661,5.661,0,0,1,9.607-4,5.329,5.329,0,0,1,1.468,4,20.956,20.956,0,0,1-21.081,21.081A20.956,20.956,0,0,1,51.5,106.278a20.426,20.426,0,0,1,6-14.943A20.029,20.029,0,0,1,72.448,85.2h7.2a2.736,2.736,0,0,0,2.8-2.8V62.248a9.47,9.47,0,0,0-2.935-7.071,9.769,9.769,0,0,0-7.071-2.935,9.47,9.47,0,0,0-7.071,2.935,9.769,9.769,0,0,0-2.935,7.071,9.47,9.47,0,0,0,2.935,7.071,9.269,9.269,0,0,0,7.071,2.935,5.906,5.906,0,0,1,4,1.468,5.8,5.8,0,0,1,0,8.005A4.227,4.227,0,0,1,72.714,83.462Z" transform="translate(-20.812 17.673)" fill="#3ac7ed"/>
                  <path id="Trazado_48" data-name="Trazado 48" d="M97.674,34.272V82.038a5.431,5.431,0,0,1-1.6,4,5.329,5.329,0,0,1-4,1.468,5.906,5.906,0,0,1-4-1.468,5.329,5.329,0,0,1-1.468-4V34.272a5.906,5.906,0,0,1,1.468-4,5.329,5.329,0,0,1,4-1.468C95.806,28.668,97.674,30.536,97.674,34.272Z" transform="translate(-9.081 13.494)" fill="#3ac7ed"/>
                  <path id="Trazado_49" data-name="Trazado 49" d="M133.791,55.977,123.25,66.25a5.405,5.405,0,0,1-3.869,1.735,5.074,5.074,0,0,1-4-1.735,6.042,6.042,0,0,1-1.735-4,5.59,5.59,0,0,1,1.868-3.869l6-5.871a11.477,11.477,0,0,0-2.135-.133,9.47,9.47,0,0,0-7.071,2.935,9.769,9.769,0,0,0-2.935,7.071,9.47,9.47,0,0,0,2.935,7.071,9.269,9.269,0,0,0,7.071,2.935h7.338a5.906,5.906,0,0,1,4,1.468,5.329,5.329,0,0,1,1.468,4,5.906,5.906,0,0,1-1.468,4,5.431,5.431,0,0,1-4,1.6h-7.472A19.825,19.825,0,0,1,104.3,77.325a20.732,20.732,0,0,1-6-15.077,20.214,20.214,0,0,1,6-14.944,21.428,21.428,0,0,1,30.154.4,5.506,5.506,0,0,1,1.6,3.736A4.98,4.98,0,0,1,133.791,55.977Z" transform="translate(-5.17 17.673)" fill="#3ac7ed"/>
                  <path id="Trazado_50" data-name="Trazado 50" d="M151.081,83.462a19.825,19.825,0,0,1-14.943-6.138A20.847,20.847,0,0,1,130,62.248,20.214,20.214,0,0,1,136,47.3a20.426,20.426,0,0,1,14.943-6,20.732,20.732,0,0,1,15.077,6,20.029,20.029,0,0,1,6.138,14.944V77.725a5.431,5.431,0,0,1-1.6,4,5.329,5.329,0,0,1-4,1.468,5.906,5.906,0,0,1-4-1.468,5.329,5.329,0,0,1-1.468-4V62.248a9.47,9.47,0,0,0-2.935-7.071,10,10,0,0,0-7.071-2.935,9.47,9.47,0,0,0-7.071,2.935,9.769,9.769,0,0,0-2.935,7.071,9.47,9.47,0,0,0,2.935,7.071,9.269,9.269,0,0,0,7.071,2.935,5.906,5.906,0,0,1,4,1.468,5.8,5.8,0,0,1,0,8.005A5.074,5.074,0,0,1,151.081,83.462Z" transform="translate(5.426 17.673)" fill="#3ac7ed"/>
                  <path id="Trazado_51" data-name="Trazado 51" d="M212.532,59.079a6.84,6.84,0,0,0-6.671-6.671,6.45,6.45,0,0,0-5.337,2.535V77.758a5.431,5.431,0,0,1-1.6,4,5.329,5.329,0,0,1-4,1.468,5.906,5.906,0,0,1-4-1.468,5.329,5.329,0,0,1-1.468-4V59.079a6.259,6.259,0,0,0-2-4.67,6.473,6.473,0,0,0-4.67-2,6.991,6.991,0,0,0-4.8,1.868,6.056,6.056,0,0,0-2,4.67V77.625a5.906,5.906,0,0,1-1.468,4,5.329,5.329,0,0,1-4,1.468,5.906,5.906,0,0,1-4-1.468,5.431,5.431,0,0,1-1.6-4V58.945A17.545,17.545,0,0,1,182.779,41.2a17.826,17.826,0,0,1,11.608,4.27,18.157,18.157,0,0,1,24.283.8,17,17,0,0,1,5.07,12.675V83.629a6.833,6.833,0,0,0,6.8,6.8h.267a5.661,5.661,0,0,1,4,9.607,5.329,5.329,0,0,1-4,1.468h-.4a17.767,17.767,0,0,1-17.879-17.879Z" transform="translate(17.091 17.64)" fill="#3ac7ed"/>
                </g>
              </g>
            </g>
          </g>
        </g>
        <g id="Grupo_28" data-name="Grupo 28" transform="translate(107.406 16.811)">
          <path id="Trazado_55" data-name="Trazado 55" d="M132.648,83.362A19.825,19.825,0,0,1,117.7,77.225a20.732,20.732,0,0,1-6-15.077,20.214,20.214,0,0,1,6-14.944,20.426,20.426,0,0,1,14.943-6,20.732,20.732,0,0,1,15.077,6,20.029,20.029,0,0,1,6.138,14.944V77.625a5.431,5.431,0,0,1-1.6,4,5.329,5.329,0,0,1-4,1.468,5.906,5.906,0,0,1-4-1.468,5.329,5.329,0,0,1-1.468-4V62.148a9.47,9.47,0,0,0-2.935-7.071,10,10,0,0,0-7.071-2.935,9.47,9.47,0,0,0-7.071,2.935,9.769,9.769,0,0,0-2.935,7.071,9.47,9.47,0,0,0,2.935,7.071,9.269,9.269,0,0,0,7.071,2.935,5.906,5.906,0,0,1,4,1.468,5.8,5.8,0,0,1,0,8.005A5.35,5.35,0,0,1,132.648,83.362Z" transform="translate(-111.7 -41.2)" fill="#ff7900" opacity="0.89"/>
          <path id="Trazado_56" data-name="Trazado 56" d="M141.971,79.719H138.9a4.014,4.014,0,0,1-4-4V56.1a4.014,4.014,0,0,1,4-4h3.069a4.014,4.014,0,0,1,4,4v19.48A4.044,4.044,0,0,1,141.971,79.719Z" transform="translate(-103.946 -37.557)" fill="#fcde06" opacity="0.54"/>
        </g>
        <path id="Trazado_57" data-name="Trazado 57" d="M115.357,55.843,104.817,66.25a5.405,5.405,0,0,1-3.869,1.735,5.074,5.074,0,0,1-4-1.735,6.042,6.042,0,0,1-1.735-4,5.59,5.59,0,0,1,1.868-3.869l6-5.871a11.478,11.478,0,0,0-2.135-.133,9.47,9.47,0,0,0-7.071,2.935,9.769,9.769,0,0,0-2.935,7.071,9.47,9.47,0,0,0,2.935,7.071,9.269,9.269,0,0,0,7.071,2.935h7.338a5.906,5.906,0,0,1,4,1.468,5.329,5.329,0,0,1,1.468,4,5.906,5.906,0,0,1-1.468,4,5.431,5.431,0,0,1-4,1.6h-7.338A19.825,19.825,0,0,1,86,77.325a20.732,20.732,0,0,1-6-15.077A20.214,20.214,0,0,1,86,47.3a21.428,21.428,0,0,1,30.154.4,5.506,5.506,0,0,1,1.6,3.736A5.35,5.35,0,0,1,115.357,55.843Z" transform="translate(-14.889 -24.355)" fill="#1bb9ef"/>
        <g id="Grupo_33" data-name="Grupo 33" transform="translate(0 6.805)">
          <path id="Trazado_58" data-name="Trazado 58" d="M54.214,83.362a19.825,19.825,0,0,1-14.943-6.137,20.732,20.732,0,0,1-6-15.077,20.214,20.214,0,0,1,6-14.944,20.426,20.426,0,0,1,14.943-6,20.214,20.214,0,0,1,14.943,6,20.426,20.426,0,0,1,6,14.944v19.88a14.122,14.122,0,0,1-14.01,14.143H54.081a9.47,9.47,0,0,0-7.071,2.935,10,10,0,0,0-2.935,7.071,9.47,9.47,0,0,0,2.935,7.071,9.769,9.769,0,0,0,7.071,2.935,9.47,9.47,0,0,0,7.071-2.935,9.769,9.769,0,0,0,2.935-7.071,5.661,5.661,0,0,1,9.607-4,5.329,5.329,0,0,1,1.468,4,20.956,20.956,0,0,1-21.081,21.081A20.956,20.956,0,0,1,33,106.178a20.426,20.426,0,0,1,6-14.943A20.029,20.029,0,0,1,53.948,85.1h7.2a2.736,2.736,0,0,0,2.8-2.8V62.148a9.47,9.47,0,0,0-2.935-7.071,9.769,9.769,0,0,0-7.071-2.935,9.47,9.47,0,0,0-7.071,2.935,9.769,9.769,0,0,0-2.935,7.071,9.47,9.47,0,0,0,2.935,7.071,9.269,9.269,0,0,0,7.071,2.935,5.906,5.906,0,0,1,4,1.468,5.8,5.8,0,0,1,0,8.005A4.227,4.227,0,0,1,54.214,83.362Z" transform="translate(-30.598 -31.193)" fill="#e82dc5"/>
          <g id="Grupo_32" data-name="Grupo 32" opacity="0.46">
            <g id="Grupo_31" data-name="Grupo 31">
              <g id="Grupo_29" data-name="Grupo 29" clip-path="url(#clip-path-7)">
                <path id="Trazado_59" data-name="Trazado 59" d="M54.214,83.362a19.825,19.825,0,0,1-14.943-6.137,20.732,20.732,0,0,1-6-15.077,20.214,20.214,0,0,1,6-14.944,20.426,20.426,0,0,1,14.943-6,20.214,20.214,0,0,1,14.943,6,20.426,20.426,0,0,1,6,14.944v19.88a14.122,14.122,0,0,1-14.01,14.143H54.081a9.47,9.47,0,0,0-7.071,2.935,10,10,0,0,0-2.935,7.071,9.47,9.47,0,0,0,2.935,7.071,9.769,9.769,0,0,0,7.071,2.935,9.47,9.47,0,0,0,7.071-2.935,9.769,9.769,0,0,0,2.935-7.071,5.661,5.661,0,0,1,9.607-4,5.329,5.329,0,0,1,1.468,4,20.956,20.956,0,0,1-21.081,21.081A20.956,20.956,0,0,1,33,106.178a20.426,20.426,0,0,1,6-14.943A20.029,20.029,0,0,1,53.948,85.1h7.2a2.736,2.736,0,0,0,2.8-2.8V62.148a9.47,9.47,0,0,0-2.935-7.071,9.769,9.769,0,0,0-7.071-2.935,9.47,9.47,0,0,0-7.071,2.935,9.769,9.769,0,0,0-2.935,7.071,9.47,9.47,0,0,0,2.935,7.071,9.269,9.269,0,0,0,7.071,2.935,5.906,5.906,0,0,1,4,1.468,5.8,5.8,0,0,1,0,8.005A4.227,4.227,0,0,1,54.214,83.362Z" transform="translate(-30.598 -31.193)" fill="#3319b2"/>
              </g>
              <g id="Grupo_30" data-name="Grupo 30" clip-path="url(#clip-path-7)">
                <rect id="Rectángulo_13" data-name="Rectángulo 13" width="49.1" height="52.969" fill="none"/>
              </g>
            </g>
            <path id="Trazado_62" data-name="Trazado 62" d="M61.87,77.511h0a5.5,5.5,0,0,1-5.47-5.47V66.57a5.5,5.5,0,0,1,5.47-5.47h0a5.5,5.5,0,0,1,5.47,5.47v5.47A5.5,5.5,0,0,1,61.87,77.511Z" transform="translate(-22.777 -24.542)" fill="#3319b2"/>
          </g>
        </g>
        <path id="Trazado_63" data-name="Trazado 63" d="M113.961,51.139a5.188,5.188,0,0,0-.534-2.8,4.689,4.689,0,0,0-.934-1.2A19.31,19.31,0,0,0,110.225,45a13.05,13.05,0,0,0-2.4-1.6L93.547,57.276h0l-.667.667a6.189,6.189,0,0,0-1.334,2.135h0a1.2,1.2,0,0,0-.133.667,5.108,5.108,0,0,0,1.067,3.869,6.18,6.18,0,0,0,2.135,1.868h0a6.418,6.418,0,0,0,2.4.667h1.067a5.576,5.576,0,0,0,1.334-.534h.133c.133-.133.267-.133.4-.267l-.133.133.267-.267.133-.133a12.063,12.063,0,0,0,1.468-1.334h0l10.541-10.274a1.842,1.842,0,0,0,.4-.534A3.935,3.935,0,0,0,113.961,51.139Z" transform="translate(-11.091 -23.653)" fill="#841ddd" opacity="0.4"/>
      </g>
      <text id="Be_proud" data-name="Be proud" transform="translate(39.862 66.323)" fill="#101010" font-size="22" font-family="LucidaGrande, Lucida Grande" opacity="0.707"><tspan x="21.267" y="21">Be</tspan><tspan y="21" font-family="Nadeem"> </tspan><tspan y="21">proud</tspan></text>
    </g>
  </g>
</svg>
