<svg xmlns="http://www.w3.org/2000/svg" width="30" height="30" viewBox="0 0 30 30">
  <g id="profile" transform="translate(-1.5 -1.5)">
    <path id="Trazado_84" data-name="Trazado 84" d="M22.909,12.955A5.455,5.455,0,1,1,17.455,7.5a5.455,5.455,0,0,1,5.455,5.455Zm-2.727,0a2.727,2.727,0,1,1-2.727-2.727,2.727,2.727,0,0,1,2.727,2.727Z" transform="translate(-0.955 -0.545)" fill="#fff" fill-rule="evenodd"/>
    <path id="Trazado_85" data-name="Trazado 85" d="M16.5,1.5a15,15,0,1,0,15,15A15,15,0,0,0,16.5,1.5ZM4.227,16.5a12.224,12.224,0,0,0,2.6,7.557,12.275,12.275,0,0,1,19.431-.115A12.273,12.273,0,1,0,4.227,16.5ZM16.5,28.773a12.222,12.222,0,0,1-7.735-2.744,9.549,9.549,0,0,1,15.582-.093A12.224,12.224,0,0,1,16.5,28.773Z" fill="#fff" fill-rule="evenodd"/>
  </g>
</svg>
