<svg width="25" height="15" viewBox="0 0 25 15" fill="none" xmlns="http://www.w3.org/2000/svg">
<path d="M24.875 7C24.675 6.7 19.975 0 12.475 0C6.075 0 0.375 6.7 0.075 7C-0.025 7.1 -0.025 7.4 0.075 7.6C0.275 7.9 6.075 14.6 12.475 14.6C18.875 14.6 24.575 7.9 24.875 7.6C24.975 7.4 24.975 7.2 24.875 7ZM12.475 13.5C7.375 13.5 2.475 8.6 1.175 7.3C2.475 5.9 7.275 1 12.475 1C18.475 1 22.775 5.9 23.775 7.2C22.575 8.6 17.675 13.5 12.475 13.5Z" fill="black"/>
<path d="M12.4749 3.09998C10.1749 3.09998 8.2749 4.99998 8.2749 7.29998C8.2749 9.59998 10.1749 11.5 12.4749 11.5C14.7749 11.5 16.6749 9.59998 16.6749 7.29998C16.6749 4.99998 14.7749 3.09998 12.4749 3.09998ZM12.4749 10.4C10.7749 10.4 9.3749 8.99998 9.3749 7.29998C9.3749 5.59998 10.7749 4.19998 12.4749 4.19998C14.1749 4.19998 15.5749 5.59998 15.5749 7.29998C15.5749 8.99998 14.1749 10.4 12.4749 10.4Z" fill="black"/>
</svg>
